<?xml version="1.0" encoding="UTF-8" standalone="no" ?>
<!DOCTYPE svg PUBLIC "-//W3C//DTD SVG 1.1//EN" "http://www.w3.org/Graphics/SVG/1.1/DTD/svg11.dtd">
<svg xmlns="http://www.w3.org/2000/svg" xmlns:xlink="http://www.w3.org/1999/xlink" version="1.1" width="1280" height="1024" viewBox="0 0 1280 1024" xml:space="preserve">
<desc>Created with Fabric.js 5.3.0</desc>
<defs>
</defs>
<g transform="matrix(1 0 0 1 640 512)" id="background-logo"  >
<rect style="stroke: none; stroke-width: 0; stroke-dasharray: none; stroke-linecap: butt; stroke-dashoffset: 0; stroke-linejoin: miter; stroke-miterlimit: 4; fill: rgb(255,255,255); fill-opacity: 0; fill-rule: nonzero; opacity: 1;"  paint-order="stroke"  x="-640" y="-512" rx="0" ry="0" width="1280" height="1024" />
</g>
<g transform="matrix(1.9211538461538462 0 0 1.9211538461538462 640 512)" id="logo-logo"  >
<g style=""  paint-order="stroke"   >
		<g transform="matrix(0.3402398633694977 0 0 0.3402398633694977 0 0)"  >
<path style="stroke: none; stroke-width: 1; stroke-dasharray: none; stroke-linecap: butt; stroke-dashoffset: 0; stroke-linejoin: miter; stroke-miterlimit: 4; fill: rgb(238,238,238); fill-rule: nonzero; opacity: 1;"  paint-order="stroke"  transform=" translate(-960, -774.95)" d="M 519.7 559.1 C 543.4000000000001 510.70000000000005 574.8000000000001 466.8 613.3000000000001 428.3 C 658.3000000000001 383.3 710.7 347.9 769.1000000000001 323.20000000000005 C 829.5000000000001 297.6 893.8000000000002 284.70000000000005 959.9000000000001 284.70000000000005 C 1026 284.70000000000005 1090.3000000000002 297.70000000000005 1150.7 323.20000000000005 C 1209.1000000000001 347.90000000000003 1261.5 383.20000000000005 1306.5 428.30000000000007 C 1345 466.80000000000007 1376.4 510.70000000000005 1400.1 559.1000000000001 L 1376.3 570.1000000000001 C 1300.5 416.60000000000014 1142.2 310.8000000000001 959.8 310.8000000000001 C 777.3 310.8000000000001 619.0999999999999 416.60000000000014 543.3 570.1000000000001 L 519.7 559.1 z M 1350.3 1026.2 L 1350.3 1026.2 C 1267.6 1154.3 1123.5 1239.2 960 1239.2 C 796.5 1239.2 652.5 1154.2 569.7 1026.2 L 538.8000000000001 1026.2 L 454.70000000000005 1026.2 C 448.00000000000006 1026.2 447.1 1036 453.70000000000005 1037.1000000000001 L 557.6 1055.3000000000002 C 574 1078.9 592.6 1101.0000000000002 613.2 1121.6000000000001 C 658.2 1166.6000000000001 710.6 1202.0000000000002 769 1226.7 C 829.4 1252.3 893.7 1265.2 959.8 1265.2 C 1025.8999999999999 1265.2 1090.2 1252.2 1150.6 1226.7 C 1209 1202 1261.3999999999999 1166.7 1306.3999999999999 1121.6000000000001 C 1326.9999999999998 1101.0000000000002 1345.4999999999998 1078.9 1361.9999999999998 1055.3000000000002 L 1465.8999999999999 1037.1000000000001 C 1472.4999999999998 1035.9 1471.6999999999998 1026.2 1464.8999999999999 1026.2 L 1380.8 1026.2 L 1350.3 1026.2 z M 1394.7 611.9 C 1413.8 662.6999999999999 1424.3 717.6 1424.3 775 L 1450.3 775 L 1564.8 775 C 1571.7 775 1572.3 764.9 1565.5 764 L 1449.6 748.7 C 1446.8999999999999 697 1436.1999999999998 646.7 1417.6 598.6 L 1394.7 611.9 z M 495.7 775 C 495.7 717.6 506.2 662.7 525.3 611.9 L 502.4 598.6 C 483.79999999999995 646.7 473.09999999999997 697 470.4 748.7 L 354.5 764 C 347.7 764.9 348.3 775 355.2 775 L 469.7 775 L 495.7 775 z" stroke-linecap="round" />
</g>
		<g transform="matrix(0.3402398633694977 0 0 0.3402398633694977 0.017011993168409845 0.017011993168466688)"  >
<path style="stroke: none; stroke-width: 1; stroke-dasharray: none; stroke-linecap: butt; stroke-dashoffset: 0; stroke-linejoin: miter; stroke-miterlimit: 4; fill: rgb(224,84,36); fill-rule: nonzero; opacity: 1;"  paint-order="stroke"  transform=" translate(-960.05, -775)" d="M 1323 1026.2 L 1333 1026.2 C 1316.9 1050 1298.5 1072.3 1277.9 1092.9 C 1236.6000000000001 1134.2 1188.5 1166.6000000000001 1135 1189.3000000000002 C 1079.6 1212.7000000000003 1020.7 1224.6000000000001 960 1224.6000000000001 C 899.3 1224.6000000000001 840.4 1212.7 785 1189.3000000000002 C 731.5 1166.7000000000003 683.4 1134.2000000000003 642.1 1092.9 C 621.5 1072.3000000000002 603.1 1050 587 1026.2 L 597 1026.2 C 676.8 1141.2 809.8 1216.6000000000001 960 1216.6000000000001 C 1110.3 1216.6 1243.2 1141.2 1323 1026.2 z M 510.4 775 L 518.4 775 C 518.4 721.8 527.9 670.8 545.1999999999999 623.5 L 538.0999999999999 619.4 C 519.7 669.1 510.4 721.3 510.4 775 z M 1382 619.3 L 1374.9 623.4 C 1392.2 670.6999999999999 1401.7 721.6999999999999 1401.7 774.9 L 1409.7 774.9 C 1409.6 721.3 1400.3 669.1 1382 619.3 z M 1363.4 576.2 C 1341.7 532.1 1313 492.20000000000005 1277.9 457.1 C 1236.6000000000001 415.8 1188.5 383.40000000000003 1135 360.70000000000005 C 1079.6 337.30000000000007 1020.7 325.40000000000003 960 325.40000000000003 C 899.3 325.40000000000003 840.4 337.3 785 360.70000000000005 C 731.5 383.30000000000007 683.4 415.80000000000007 642.1 457.1 C 607 492.20000000000005 578.4 532.1 556.6 576.2 L 614.2 604.2 L 568.1 571.6 C 641.8 430.1 789.8 333.4 960 333.4 C 1130.2 333.4 1278.2 430.2 1351.9 571.5999999999999 L 1305.8000000000002 604.1999999999999 L 1363.4 576.2 L 1363.4 576.2 C 1363.4 576.2 1363.4 576.2 1363.4 576.2 L 1363.4 576.2 L 1363.4 576.2 z" stroke-linecap="round" />
</g>
		<g transform="matrix(0.3402398633694977 0 0 0.3402398633694977 0 93.5659624266118)"  >
<path style="stroke: none; stroke-width: 1; stroke-dasharray: none; stroke-linecap: butt; stroke-dashoffset: 0; stroke-linejoin: miter; stroke-miterlimit: 4; fill: rgb(173,48,14); fill-rule: nonzero; opacity: 1;"  paint-order="stroke"  transform=" translate(-960, -1049.95)" d="M 1000.1 1045.8 L 919.8000000000001 1045.8 C 916.3000000000001 1045.8 913.4000000000001 1042.8999999999999 913.4000000000001 1039.3999999999999 L 913.4000000000001 1026.3 L 1006.5000000000001 1026.3 L 1006.5000000000001 1039.3999999999999 C 1006.5 1042.9 1003.7 1045.8 1000.1 1045.8 z M 948.1 1055.2 L 867.8000000000001 1055.2 C 865.8000000000001 1055.2 863.9000000000001 1056.2 862.8000000000001 1057.6000000000001 C 891.6 1067.5000000000002 922.4000000000001 1073.1000000000001 954.5000000000001 1073.7 L 954.5000000000001 1061.6000000000001 C 954.5 1058 951.6 1055.2 948.1 1055.2 z M 902.5 1039.4 L 902.5 1026.3000000000002 L 809.4 1026.3000000000002 L 809.4 1033.2000000000003 C 817.1999999999999 1037.8000000000002 825.3 1042.0000000000002 833.6 1045.9000000000003 L 896.1 1045.9000000000003 C 899.6 1045.8 902.5 1042.9 902.5 1039.4 z M 1110.6 1026.2 L 1017.4999999999999 1026.2 L 1017.4999999999999 1039.3 C 1017.4999999999999 1042.8 1020.3999999999999 1045.7 1023.8999999999999 1045.7 L 1086.3999999999999 1045.7 C 1094.6999999999998 1041.8 1102.6999999999998 1037.6000000000001 1110.6 1033 L 1110.6 1026.2 z M 1057.2 1057.6 C 1056 1056.1 1054.2 1055.1999999999998 1052.2 1055.1999999999998 L 971.9000000000001 1055.1999999999998 C 968.4000000000001 1055.1999999999998 965.5000000000001 1058.1 965.5000000000001 1061.6 L 965.5000000000001 1073.6999999999998 C 997.5 1073.1 1028.4 1067.5 1057.2 1057.6 z" stroke-linecap="round" />
</g>
		<g transform="matrix(0.3402398633694977 0 0 0.3402398633694977 119.67695263541111 -38.92766243514171)"  >
<path style="stroke: none; stroke-width: 1; stroke-dasharray: none; stroke-linecap: butt; stroke-dashoffset: 0; stroke-linejoin: miter; stroke-miterlimit: 4; fill: rgb(255,255,255); fill-rule: nonzero; opacity: 1;"  paint-order="stroke"  transform=" translate(-1311.7428894139985, -660.5375909141587)" d="M 1430.7 567.8 C 1429 564.1999999999999 1424.8 562.5999999999999 1421.2 564.3 L 1332.2 605.4 C 1327.7 607.4 1325.2 612 1325.4 616.6 L 1314.8000000000002 622.1 L 1312.1000000000001 662.6 L 1240.7 714.2 L 1297.4 657.1 L 1268.9 645.2 C 1266.3000000000002 644.1 1263.3000000000002 645 1261.7 647.3000000000001 L 1193.2 748.2 C 1190 752.9000000000001 1194.7 759 1200.1000000000001 757.1 L 1365.7 696.7 C 1370.8 694.9000000000001 1370.9 687.8000000000001 1365.9 685.7 L 1321.9 667.4000000000001 L 1324.5 628.5000000000001 L 1330.1 625.6000000000001 C 1333.8 628.4000000000001 1338.8999999999999 628.9000000000001 1343.1999999999998 626.4000000000001 L 1427.9999999999998 577.0000000000001 C 1430.9 575.2 1432.2 571.2 1430.7 567.8 z" stroke-linecap="round" />
</g>
		<g transform="matrix(0.3402398633694977 0 0 0.3402398633694977 -119.67695263541125 -38.92766243514171)"  >
<path style="stroke: none; stroke-width: 1; stroke-dasharray: none; stroke-linecap: butt; stroke-dashoffset: 0; stroke-linejoin: miter; stroke-miterlimit: 4; fill: rgb(255,255,255); fill-rule: nonzero; opacity: 1;"  paint-order="stroke"  transform=" translate(-608.2571105860013, -660.5375909141587)" d="M 489.3 567.8 C 491 564.1999999999999 495.2 562.5999999999999 498.8 564.3 L 587.8 605.4 C 592.3 607.4 594.8 612 594.5999999999999 616.6 L 605.1999999999999 622.1 L 607.9 662.6 L 679.3 714.2 L 622.5999999999999 657.1 L 651.0999999999999 645.2 C 653.6999999999999 644.1 656.6999999999999 645 658.3 647.3000000000001 L 726.8 748.2 C 730 752.9000000000001 725.3 759 719.9 757.1 L 554.3 696.7 C 549.1999999999999 694.9000000000001 549.0999999999999 687.8000000000001 554.0999999999999 685.7 L 598.0999999999999 667.4000000000001 L 595.4999999999999 628.5000000000001 L 589.8999999999999 625.6000000000001 C 586.1999999999998 628.4000000000001 581.0999999999999 628.9000000000001 576.7999999999998 626.4000000000001 L 491.99999999999983 577.0000000000001 C 489.1 575.2 487.8 571.2 489.3 567.8 z" stroke-linecap="round" />
</g>
		<g transform="matrix(0.3402398633694977 0 0 0.3402398633694977 67.43554091983452 -51.01972305558658)"  >
<path style="stroke: none; stroke-width: 1; stroke-dasharray: none; stroke-linecap: butt; stroke-dashoffset: 0; stroke-linejoin: miter; stroke-miterlimit: 4; fill: rgb(173,48,14); fill-rule: nonzero; opacity: 1;"  paint-order="stroke"  transform=" translate(-1158.2000000000003, -624.997779380338)" d="M 1130.3 565.5 L 1130.3 546.7 C 1130.3 541.3000000000001 1135.7 537.6 1140.7 539.5 L 1186.7 556.9 C 1189.7 558 1191.7 560.9 1191.7 564.1 L 1191.7 580.3000000000001 C 1191.7 585.5000000000001 1186.6000000000001 589.2 1181.6000000000001 587.6 L 1135.6000000000001 572.8000000000001 C 1132.4 571.9 1130.3 568.9 1130.3 565.5 z M 1169.7 727.4 L 1189.8 729 L 1209.8999999999999 699.5 L 1171.3999999999999 694.3 C 1166.8 693.6999999999999 1162.6999999999998 697.3 1162.6999999999998 701.9 L 1162.6999999999998 719.6999999999999 C 1162.5 723.8 1165.6 727.1 1169.7 727.4 z M 1218 618.5 C 1218 615.1 1215.8 612.1 1212.5 611.1 L 1172.4 599.2 C 1167.5 597.7 1162.5 601.4000000000001 1162.5 606.6 L 1162.5 624 C 1162.5 627.6 1164.9 630.7 1168.4 631.5 L 1208.5 641.2 C 1213.3 642.4000000000001 1218 638.7 1218 633.7 L 1218 618.5 z M 1191.7 674 L 1191.7 657.1 C 1191.7 653.5 1189.2 650.3000000000001 1185.6000000000001 649.6 L 1139.6000000000001 639.7 C 1134.8000000000002 638.7 1130.3000000000002 642.3000000000001 1130.3000000000002 647.2 L 1130.3000000000002 666.7 C 1130.3000000000002 670.5 1133.1000000000001 673.7 1136.8000000000002 674.3000000000001 L 1182.8000000000002 681.6 C 1187.4 682.4 1191.7 678.8 1191.7 674 z M 1218 678.2 L 1218 662.8000000000001 C 1218 659.2 1215.5 656.0000000000001 1211.9 655.3000000000001 C 1207.1000000000001 654.3000000000001 1202.6000000000001 657.9000000000001 1202.6000000000001 662.8000000000001 L 1202.6000000000001 678.2 C 1202.6000000000001 682 1205.4 685.2 1209.1000000000001 685.8000000000001 C 1213.8 686.6 1218 683 1218 678.2 z M 1036.2 626.9 L 1036.2 651.6999999999999 C 1036.2 655.4999999999999 1039 658.6999999999999 1042.7 659.3 L 1107.3 669.5999999999999 C 1112 670.3 1116.2 666.6999999999999 1116.2 661.9999999999999 L 1116.2 640.8999999999999 C 1116.2 637.2999999999998 1113.7 634.0999999999999 1110.1000000000001 633.3999999999999 L 1045.5000000000002 619.3999999999999 C 1040.7 618.3 1036.2 622 1036.2 626.9 z M 1208 596.2 L 1208 596.2 C 1213 597.8000000000001 1218.1 594.1 1218.1 588.9000000000001 L 1218.1 574.2 C 1218.1 571 1216.1 568.1 1213.1 567 C 1208.1 565.1 1202.6999999999998 568.8 1202.6999999999998 574.2 L 1202.6999999999998 588.9000000000001 C 1202.6 592.2 1204.8 595.2 1208 596.2 z M 1140.4 624.7 C 1145.2 625.9000000000001 1149.9 622.2 1149.9 617.2 L 1149.9 598.2 C 1149.9 594.8000000000001 1147.7 591.8000000000001 1144.4 590.8000000000001 L 1088.5 574.1 C 1083.6 572.6 1078.6 576.3000000000001 1078.6 581.5 L 1078.6 603.6 C 1078.6 607.2 1081 610.3000000000001 1084.5 611.1 L 1140.4 624.7 z M 1085.7 720.9 L 1141.6000000000001 725.3 C 1146.1000000000001 725.5999999999999 1149.9 722.0999999999999 1149.9 717.5999999999999 L 1149.9 698.1999999999999 C 1149.9 694.3 1147 691.0999999999999 1143.2 690.5999999999999 L 1087.3 683.0999999999999 C 1082.7 682.4999999999999 1078.6 686.0999999999999 1078.6 690.6999999999999 L 1078.6 713.3 C 1078.5 717.2 1081.6 720.6 1085.7 720.9 z M 1180.6 760.7 C 1177.1999999999998 754.4000000000001 1177.6999999999998 746.7 1181.6999999999998 740.7 L 1181.8999999999999 740.4000000000001 L 1138.3999999999999 737.9000000000001 C 1133.9999999999998 737.6000000000001 1130.3 741.2 1130.3 745.6000000000001 L 1130.3 765.3000000000002 C 1130.3 769.6000000000001 1133.8 773.0000000000002 1138 773.0000000000002 L 1184 773.0000000000002 C 1186.7 773.0000000000002 1189.1 771.6000000000003 1190.4 769.5000000000002 C 1186.3 767.9 1182.8 764.8 1180.6 760.7 z M 1010.2 730.7 L 974.7 728.7 C 970.3000000000001 728.4000000000001 966.6 732 966.6 736.4000000000001 L 966.6 765.4000000000001 C 966.6 769.7 970.1 773.1000000000001 974.3000000000001 773.1000000000001 L 1009.8000000000001 773.1000000000001 C 1014.1 773.1000000000001 1017.5000000000001 769.6000000000001 1017.5000000000001 765.4000000000001 L 1017.5000000000001 738.4000000000001 C 1017.5 734.3 1014.3 730.9 1010.2 730.7 z M 1108.9 736.3 L 1044.3000000000002 732.5999999999999 C 1039.9 732.3 1036.2000000000003 735.8999999999999 1036.2000000000003 740.3 L 1036.2000000000003 765.4 C 1036.2000000000003 769.6999999999999 1039.6000000000004 773.1 1043.9000000000003 773.1 L 1108.5000000000002 773.1 C 1112.8000000000002 773.1 1116.2000000000003 769.6 1116.2000000000003 765.4 L 1116.2000000000003 744 C 1116.2 739.9 1113 736.5 1108.9 736.3 z M 1041.5 542.5 L 1106.1 563.3 C 1111.1 564.9 1116.1999999999998 561.1999999999999 1116.1999999999998 556 L 1116.1999999999998 535.5 C 1116.1999999999998 532.3 1114.1999999999998 529.4 1111.1999999999998 528.3 L 1046.6 503.79999999999995 C 1041.6 501.9 1036.1999999999998 505.59999999999997 1036.1999999999998 510.99999999999994 L 1036.1999999999998 535.1999999999999 C 1036.2 538.5 1038.3 541.5 1041.5 542.5 z M 973.7 712.1 L 1053.8 718.3000000000001 C 1058.3 718.6 1062.1 715.1 1062.1 710.6 L 1062.1 686.2 C 1062.1 682.3000000000001 1059.1999999999998 679.1 1055.3999999999999 678.6 L 975.2999999999998 667.8000000000001 C 970.6999999999998 667.2 966.5999999999998 670.8000000000001 966.5999999999998 675.4000000000001 L 966.5999999999998 704.4000000000001 C 966.6 708.5 969.7 711.8 973.7 712.1 z M 971.9 520.1 L 1007.4 531.6 C 1012.4 533.2 1017.5 529.5 1017.5 524.3000000000001 L 1017.5 498.20000000000005 C 1017.5 495.00000000000006 1015.5 492.1 1012.5 491.00000000000006 L 977 477.4 C 972 475.5 966.6 479.2 966.6 484.59999999999997 L 966.6 512.6999999999999 C 966.6 516.1 968.7 519.1 971.9 520.1 z M 973 648.2 L 1008.5 653.9000000000001 C 1013.2 654.6000000000001 1017.4 651.0000000000001 1017.4 646.3000000000001 L 1017.4 619.5000000000001 C 1017.4 615.9000000000001 1014.9 612.7000000000002 1011.3 612.0000000000001 L 975.8 604.3000000000001 C 971 603.3000000000001 966.5 606.9000000000001 966.5 611.8000000000001 L 966.5 640.6 C 966.6 644.4 969.3 647.6 973 648.2 z M 972.5 584.2 L 1052.6 603.5 C 1057.3999999999999 604.7 1062.1 601 1062.1 596 L 1062.1 572 C 1062.1 568.6 1059.8999999999999 565.6 1056.6 564.6 L 976.4999999999999 540.8000000000001 C 971.5999999999999 539.3000000000001 966.5999999999999 543.0000000000001 966.5999999999999 548.2 L 966.5999999999999 576.7 C 966.6 580.3 969 583.4 972.5 584.2 z M 1218 764.9 L 1204.4 769.9 C 1204.3000000000002 769.9 1204.2 770 1204.1000000000001 770 C 1205.4 771.8 1207.5000000000002 772.9 1209.8000000000002 773.1 L 1209.8000000000002 773.1 L 1218.0000000000002 773.1 L 1349.9000000000003 720.3000000000001 L 1218 764.9 z" stroke-linecap="round" />
</g>
		<g transform="matrix(0.3402398633694977 0 0 0.3402398633694977 -67.46956490617146 -51.00261036778616)"  >
<path style="stroke: none; stroke-width: 1; stroke-dasharray: none; stroke-linecap: butt; stroke-dashoffset: 0; stroke-linejoin: miter; stroke-miterlimit: 4; fill: rgb(224,84,36); fill-rule: nonzero; opacity: 1;"  paint-order="stroke"  transform=" translate(-761.7, -625.0480753322319)" d="M 702 633.6 L 702 618.5 C 702 615.1 704.2 612.1 707.5 611.1 C 712.4 609.6 717.4 613.3000000000001 717.4 618.5 L 717.4 633.6 C 717.4 637.2 715 640.3000000000001 711.5 641.1 C 706.6 642.2 702 638.6 702 633.6 z M 789.7 616.1 L 789.7 597 C 789.7 591.8 784.7 588.1 779.8000000000001 589.6 L 733.8000000000001 603.3000000000001 C 730.5000000000001 604.3000000000001 728.3000000000001 607.3000000000001 728.3000000000001 610.7 L 728.3000000000001 627.3000000000001 C 728.3000000000001 632.3000000000001 733.0000000000001 636.0000000000001 737.8000000000001 634.8000000000001 L 783.8000000000001 623.7 C 787.3 622.8 789.7 619.7 789.7 616.1 z M 712 596.2 L 752.1 583.3000000000001 C 755.3000000000001 582.3000000000001 757.4 579.3000000000001 757.4 576.0000000000001 L 757.4 559.0000000000001 C 757.4 553.6000000000001 752 549.9000000000001 747 551.8000000000001 L 706.9 567 C 703.9 568.1 701.9 571 701.9 574.2 L 701.9 588.9000000000001 C 702 594.1 707.1 597.8 712 596.2 z M 883.8 593.5 L 883.8 569 C 883.8 563.8 878.8 560.1 873.9 561.6 L 809.3 580.8000000000001 C 806 581.8000000000001 803.8 584.8000000000001 803.8 588.2 L 803.8 609 C 803.8 614 808.5 617.7 813.3 616.5 L 877.9 600.9 C 881.4 600.1 883.8 597 883.8 593.5 z M 781 689.9 L 735 696.1 C 731.2 696.6 728.3 699.9 728.3 703.7 L 728.3 720.7 C 728.3 725.2 732.0999999999999 728.7 736.5999999999999 728.4000000000001 L 782.5999999999999 724.8000000000001 C 786.5999999999999 724.5000000000001 789.6999999999999 721.1 789.6999999999999 717.1 L 789.6999999999999 697.4 C 789.7 692.9 785.6 689.3 781 689.9 z M 780.2 574.2 L 836.1 556.2 C 839.3000000000001 555.2 841.4 552.2 841.4 548.9000000000001 L 841.4 527.1000000000001 C 841.4 521.7000000000002 836 518.0000000000001 831 519.9000000000001 L 775.1 541.1000000000001 C 772.1 542.2000000000002 770.1 545.1000000000001 770.1 548.3000000000002 L 770.1 566.9000000000002 C 770.1 572.1 775.2 575.8 780.2 574.2 z M 832.1 628.5 L 776.2 640.6 C 772.7 641.4 770.1 644.5 770.1 648.1 L 770.1 667.3000000000001 C 770.1 672.0000000000001 774.3000000000001 675.7 779 674.9000000000001 L 834.9 666.0000000000001 C 838.6 665.4000000000001 841.4 662.2000000000002 841.4 658.4000000000001 L 841.4 636 C 841.5 631.1 836.9 627.5 832.1 628.5 z M 803.8 693.6 L 803.8 714.9 C 803.8 719.4 807.5999999999999 722.9 812.0999999999999 722.6 L 876.6999999999999 717.6 C 880.6999999999999 717.3000000000001 883.8 713.9 883.8 709.9 L 883.8 684.9 C 883.8 680.1999999999999 879.6999999999999 676.6 875.0999999999999 677.3 L 810.4999999999999 686 C 806.6 686.5 803.8 689.7 803.8 693.6 z M 749.3 739.8 L 738 740.4 L 738.2 740.6999999999999 C 742.3000000000001 746.6999999999999 742.7 754.3 739.3000000000001 760.6999999999999 C 735.9000000000001 767.0999999999999 729.4000000000001 771.0999999999999 722.2 771.0999999999999 C 722.2 771.0999999999999 722.2 771.0999999999999 722.2 771.0999999999999 C 719.9000000000001 771.0999999999999 717.7 770.6999999999999 715.5 769.8999999999999 L 701.9 764.8999999999999 L 570 720.2999999999998 L 702 773.1 L 709.7 773.1 L 717.4000000000001 773.1 L 749.8000000000001 773.1 C 754.1 773.1 757.5000000000001 769.6 757.5000000000001 765.4 L 757.5000000000001 747.5 C 757.5 743.1 753.7 739.6 749.3 739.8 z M 943.5 540.8 L 908 551.4 C 904.7 552.4 902.5 555.4 902.5 558.8 L 902.5 585.3 C 902.5 590.3 907.2 594 912 592.8 L 947.5 584.1999999999999 C 951 583.4 953.4 580.3 953.4 576.6999999999999 L 953.4 548.1999999999999 C 953.4 543 948.5 539.3 943.5 540.8 z M 944.7 667.9 L 909.2 672.6999999999999 C 905.4000000000001 673.1999999999999 902.5 676.4999999999999 902.5 680.3 L 902.5 707.1999999999999 C 902.5 711.6999999999999 906.3 715.1999999999999 910.8 714.9 L 946.3 712.1 C 950.3 711.8000000000001 953.4 708.4 953.4 704.4 L 953.4 675.4 C 953.4 670.8 949.3 667.2 944.7 667.9 z M 944.1 604.3 L 864 621.5999999999999 C 860.5 622.3999999999999 857.9 625.4999999999999 857.9 629.0999999999999 L 857.9 653.3 C 857.9 658 862.1 661.6999999999999 866.8 660.9 L 946.9 648.1 C 950.6 647.5 953.4 644.3000000000001 953.4 640.5 L 953.4 611.7 C 953.4 606.9 948.9 603.2 944.1 604.3 z M 710.9 685.8 L 751 679.4 C 754.7 678.8 757.5 675.6 757.5 671.8 L 757.5 654.1999999999999 C 757.5 649.3 753 645.5999999999999 748.2 646.6999999999999 L 708.1 655.4 C 704.6 656.1999999999999 702 659.3 702 662.9 L 702 678.3 C 702 683 706.2 686.6 710.9 685.8 z M 943 477.4 L 862.9 507.79999999999995 C 859.9 508.9 857.9 511.79999999999995 857.9 515 L 857.9 538.6 C 857.9 543.8000000000001 863 547.5 868 545.9 L 948.1 520.1 C 951.3000000000001 519.1 953.4 516.1 953.4 512.8000000000001 L 953.4 484.70000000000005 C 953.4 479.2 948 475.5 943 477.4 z M 717.4 710 L 717.4 707.3 C 717.4 703.1999999999999 714.1999999999999 699.9 710.3 699.5999999999999 L 717.4 710 z M 945.3 728.7 L 865.1999999999999 733.3000000000001 C 861.0999999999999 733.5000000000001 857.9 736.9000000000001 857.9 741.0000000000001 L 857.9 765.5000000000001 C 857.9 769.8000000000001 861.4 773.2000000000002 865.6 773.2000000000002 L 945.7 773.2000000000002 C 950 773.2000000000002 953.4000000000001 769.7000000000002 953.4000000000001 765.5000000000001 L 953.4000000000001 736.5000000000001 C 953.4 731.9 949.7 728.4 945.3 728.7 z M 833.3 735 L 777.4 738.2 C 773.3 738.4000000000001 770.1 741.8000000000001 770.1 745.9000000000001 L 770.1 765.4000000000001 C 770.1 769.7 773.6 773.1000000000001 777.8000000000001 773.1000000000001 L 833.7 773.1000000000001 C 838 773.1000000000001 841.4000000000001 769.6000000000001 841.4000000000001 765.4000000000001 L 841.4000000000001 742.7 C 841.5 738.3 837.7 734.8 833.3 735 z" stroke-linecap="round" />
</g>
		<g transform="matrix(0.3402398633694977 0 0 0.3402398633694977 -48.68832444817514 -100.37008484274898)"  >
<path style="stroke: none; stroke-width: 1; stroke-dasharray: none; stroke-linecap: butt; stroke-dashoffset: 0; stroke-linejoin: miter; stroke-miterlimit: 4; fill: rgb(255,255,255); fill-rule: nonzero; opacity: 1;"  paint-order="stroke"  transform=" translate(-816.9, -479.9519834573355)" d="M 953.4 404.1 L 953.4 451.5 C 953.4 454.2 951.6999999999999 456.7 949.1999999999999 457.7 L 689.6 562 C 685.2 563.8 680.4 560.5 680.4 555.8 L 680.4 529 C 680.4 526.4 681.9 524.1 684.1999999999999 522.9 L 729.0999999999999 501.29999999999995 C 733.5999999999999 499.19999999999993 738.6999999999999 502.4 738.6999999999999 507.4 L 738.6999999999999 523.6 C 738.6999999999999 528.4 743.5999999999999 531.6 747.9999999999999 529.8000000000001 L 747.9999999999999 529.8000000000001 C 750.4999999999999 528.8000000000001 752.0999999999999 526.3000000000001 752.0999999999999 523.6 L 752.0999999999999 494.5 C 752.0999999999999 491.9 753.5999999999999 489.6 755.8999999999999 488.4 L 819.3999999999999 457.9 C 823.8999999999999 455.79999999999995 828.9999999999999 459 828.9999999999999 464 L 828.9999999999999 486 C 828.9999999999999 490.8 833.8999999999999 494 838.2999999999998 492.2 L 842.8999999999999 490.3 C 845.3999999999999 489.3 846.9999999999999 486.8 846.9999999999999 484.1 L 846.9999999999999 448.8 C 846.9999999999999 446.2 848.4999999999999 443.90000000000003 850.7999999999998 442.7 L 943.6999999999998 398.09999999999997 C 948.3 395.9 953.4 399.2 953.4 404.1 z" stroke-linecap="round" />
</g>
		<g transform="matrix(0.3402398633694977 0 0 0.3402398633694977 48.68832444817514 -100.37008484274898)"  >
<path style="stroke: none; stroke-width: 1; stroke-dasharray: none; stroke-linecap: butt; stroke-dashoffset: 0; stroke-linejoin: miter; stroke-miterlimit: 4; fill: rgb(238,238,238); fill-rule: nonzero; opacity: 1;"  paint-order="stroke"  transform=" translate(-1103.1000000000001, -479.9519834573355)" d="M 966.6 404.1 L 966.6 451.5 C 966.6 454.2 968.3000000000001 456.7 970.8000000000001 457.7 L 1230.4 562 C 1234.8000000000002 563.8 1239.6000000000001 560.5 1239.6000000000001 555.8 L 1239.6000000000001 529 C 1239.6000000000001 526.4 1238.1000000000001 524.1 1235.8000000000002 522.9 L 1190.9 501.29999999999995 C 1186.4 499.19999999999993 1181.3000000000002 502.4 1181.3000000000002 507.4 L 1181.3000000000002 523.6 C 1181.3000000000002 528.4 1176.4 531.6 1172.0000000000002 529.8000000000001 L 1172.0000000000002 529.8000000000001 C 1169.5000000000002 528.8000000000001 1167.9000000000003 526.3000000000001 1167.9000000000003 523.6 L 1167.9000000000003 494.5 C 1167.9000000000003 491.9 1166.4000000000003 489.6 1164.1000000000004 488.4 L 1100.6000000000004 457.9 C 1096.1000000000004 455.79999999999995 1091.0000000000005 459 1091.0000000000005 464 L 1091.0000000000005 486 C 1091.0000000000005 490.8 1086.1000000000004 494 1081.7000000000005 492.2 L 1077.1000000000006 490.3 C 1074.6000000000006 489.3 1073.0000000000007 486.8 1073.0000000000007 484.1 L 1073.0000000000007 448.8 C 1073.0000000000007 446.2 1071.5000000000007 443.90000000000003 1069.2000000000007 442.7 L 976.3000000000008 398.09999999999997 C 971.7 395.9 966.6 399.2 966.6 404.1 z" stroke-linecap="round" />
</g>
</g>
</g>
<g transform="matrix(1.9211538461538462 0 0 1.9211538461538462 640.3777733465439 588.1877772239353)" id="text-logo"  >
<g style=""  paint-order="stroke"   >
		<g transform="matrix(1 0 0 1 0 0)" id="text-logo-path-0"  >
<filter id="SVGID_387847" y="-30.683760683760674%" height="161.36752136752136%" x="-20%" width="140%" >
	<feGaussianBlur in="SourceAlpha" stdDeviation="0"></feGaussianBlur>
	<feOffset dx="0" dy="4.307692307692305" result="oBlur" ></feOffset>
	<feFlood flood-color="rgb(225,84,36)" flood-opacity="1"/>
	<feComposite in2="oBlur" operator="in" />
	<feMerge>
		<feMergeNode></feMergeNode>
		<feMergeNode in="SourceGraphic"></feMergeNode>
	</feMerge>
</filter>
<path style="stroke: rgb(255,255,255); stroke-width: 0; stroke-dasharray: none; stroke-linecap: butt; stroke-dashoffset: 0; stroke-linejoin: miter; stroke-miterlimit: 4; fill: rgb(255,255,255); fill-rule: nonzero; opacity: 1;filter: url(#SVGID_387847);"  paint-order="stroke"  transform=" translate(-236.92128236915383, 19.599999999999998)" d="M 1.23 -38.64 L 1.23 -0.56 C 1.23 -0.28 1.46 0 1.79 0 L 6.83 0 C 7.11 0 7.39 -0.22 7.39 -0.56 L 7.39 -38.64 C 7.39 -38.92 7.17 -39.2 6.83 -39.2 L 1.79 -39.2 C 1.51 -39.2 1.23 -38.98 1.23 -38.64 Z M 9.8 -38.64 L 9.8 -0.56 C 9.8 -0.28 10.02 0 10.36 0 L 14.28 0 C 14.56 0 14.84 -0.22 14.84 -0.56 L 14.84 -29.85 C 14.84 -30.13 14.9 -30.18 14.9 -29.85 L 18.7 -0.56 C 18.7 -0.28 18.98 0 19.32 0 L 23.8 0 C 24.14 0 24.42 -0.28 24.42 -0.56 L 28.22 -29.85 C 28.22 -30.13 28.28 -30.18 28.28 -29.85 L 28.28 -0.56 C 28.28 -0.28 28.5 0 28.84 0 L 33.88 0 C 34.16 0 34.44 -0.22 34.44 -0.56 L 34.44 -38.64 C 34.44 -38.92 34.22 -39.2 33.88 -39.2 L 25.48 -39.2 C 25.14 -39.2 24.86 -38.92 24.86 -38.64 L 21.9 -11.37 C 21.9 -11.09 21.84 -11.03 21.78 -11.37 L 18.82 -38.64 C 18.82 -38.92 18.54 -39.2 18.2 -39.2 L 10.36 -39.2 C 10.08 -39.2 9.8 -38.98 9.8 -38.64 Z M 36.85 -38.64 L 36.85 -0.56 C 36.85 -0.28 37.07 0 37.41 0 L 42.45 0 C 42.73 0 43.01 -0.22 43.01 -0.56 L 43.01 -17.08 C 43.01 -16.74 43.29 -16.52 43.57 -16.52 L 45.47 -16.52 C 50.51 -16.52 54.21 -20.55 54.21 -25.14 L 54.21 -30.58 C 54.21 -35.17 50.51 -39.2 45.47 -39.2 L 37.41 -39.2 C 37.13 -39.2 36.85 -38.98 36.85 -38.64 Z M 43.57 -33.04 L 45.47 -33.04 C 46.93 -33.04 48.05 -31.92 48.05 -30.58 L 48.05 -25.14 C 48.05 -23.8 46.93 -22.68 45.47 -22.68 L 43.57 -22.68 C 43.23 -22.68 43.01 -22.4 43.01 -22.12 L 43.01 -33.6 C 43.01 -33.32 43.23 -33.04 43.57 -33.04 Z M 56.62 -38.64 L 56.62 -0.56 C 56.62 -0.28 56.84 0 57.18 0 L 71.18 0 C 71.46 0 71.74 -0.22 71.74 -0.56 L 71.74 -5.6 C 71.74 -5.88 71.51 -6.16 71.18 -6.16 L 63.34 -6.16 C 63.06 -6.16 62.78 -6.38 62.78 -6.72 L 62.78 -15.96 C 62.78 -16.24 63 -16.52 63.34 -16.52 L 68.38 -16.52 C 68.66 -16.52 68.94 -16.74 68.94 -17.08 L 68.94 -22.12 C 68.94 -22.4 68.71 -22.68 68.38 -22.68 L 63.34 -22.68 C 63.06 -22.68 62.78 -22.9 62.78 -23.24 L 62.78 -32.48 C 62.78 -32.76 63 -33.04 63.34 -33.04 L 71.18 -33.04 C 71.46 -33.04 71.74 -33.26 71.74 -33.6 L 71.74 -38.64 C 71.74 -38.92 71.51 -39.2 71.18 -39.2 L 57.18 -39.2 C 56.9 -39.2 56.62 -38.98 56.62 -38.64 Z M 74.14 -38.64 L 74.14 -0.56 C 74.14 -0.28 74.37 0 74.7 0 L 79.74 0 C 80.02 0 80.3 -0.22 80.3 -0.56 L 80.3 -15.96 C 80.3 -16.3 80.58 -16.52 80.86 -16.52 L 81.76 -16.52 C 82.1 -16.52 82.38 -16.24 82.43 -15.96 L 85.23 -0.56 C 85.29 -0.28 85.57 0 85.9 0 L 90.94 0 C 91.22 0 91.45 -0.22 91.39 -0.56 L 87.81 -17.47 C 87.75 -17.81 87.92 -18.2 88.14 -18.37 C 90.22 -19.94 91.5 -22.4 91.5 -25.14 L 91.5 -30.58 C 91.5 -35.17 87.75 -39.2 82.77 -39.2 L 74.7 -39.2 C 74.42 -39.2 74.14 -38.98 74.14 -38.64 Z M 80.3 -23.24 L 80.3 -32.48 C 80.3 -32.82 80.58 -33.04 80.86 -33.04 L 82.77 -33.04 C 84.67 -33.04 85.34 -32.37 85.34 -30.58 L 85.34 -25.14 C 85.34 -23.35 84.67 -22.68 82.77 -22.68 L 80.86 -22.68 C 80.53 -22.68 80.3 -22.96 80.3 -23.24 Z M 93.91 -38.64 L 93.91 -0.56 C 93.91 -0.28 94.14 0 94.47 0 L 99.51 0 C 99.79 0 100.07 -0.22 100.07 -0.56 L 100.07 -38.64 C 100.07 -38.92 99.85 -39.2 99.51 -39.2 L 94.47 -39.2 C 94.19 -39.2 93.91 -38.98 93.91 -38.64 Z M 102.37 0 L 107.41 0 C 107.74 0 108.02 -0.28 108.02 -0.56 L 108.64 -5.04 C 108.64 -5.38 108.98 -5.6 109.26 -5.6 L 112.84 -5.6 C 113.18 -5.6 113.46 -5.32 113.46 -5.04 L 114.07 -0.56 C 114.07 -0.22 114.41 0 114.69 0 L 119.73 0 C 120.06 0 120.23 -0.28 120.18 -0.56 L 114.24 -38.64 C 114.18 -38.98 113.85 -39.2 113.57 -39.2 L 108.53 -39.2 C 108.19 -39.2 107.91 -38.92 107.86 -38.64 L 101.92 -0.56 C 101.86 -0.22 102.09 0 102.37 0 Z M 109.54 -12.32 L 110.99 -23.46 C 110.99 -23.8 111.1 -23.74 111.1 -23.46 L 112.56 -12.32 C 112.56 -11.98 112.34 -11.76 112.06 -11.76 L 110.04 -11.76 C 109.7 -11.76 109.54 -12.04 109.54 -12.32 Z M 122.02 -38.64 L 122.02 -0.56 C 122.02 -0.28 122.25 0 122.58 0 L 136.58 0 C 136.86 0 137.14 -0.22 137.14 -0.56 L 137.14 -5.6 C 137.14 -5.88 136.92 -6.16 136.58 -6.16 L 128.18 -6.16 L 128.18 -38.64 C 128.18 -38.92 127.96 -39.2 127.62 -39.2 L 122.58 -39.2 C 122.3 -39.2 122.02 -38.98 122.02 -38.64 Z M 150.7 -8.06 C 150.7 -3.47 154.39 0.56 159.43 0.56 C 164.14 0.56 168.06 -3.3 168.06 -8.06 L 168.06 -12.1 C 168.06 -12.38 167.83 -12.66 167.5 -12.66 L 162.46 -12.66 C 162.18 -12.66 161.9 -12.43 161.9 -12.1 L 161.9 -8.06 C 161.9 -6.72 160.78 -5.6 159.43 -5.6 C 157.98 -5.6 156.86 -6.72 156.86 -8.06 L 156.86 -31.14 C 156.86 -32.48 157.98 -33.6 159.43 -33.6 C 160.78 -33.6 161.9 -32.48 161.9 -31.14 L 161.9 -27.1 C 161.9 -26.82 162.12 -26.54 162.46 -26.54 L 167.5 -26.54 C 167.78 -26.54 168.06 -26.77 168.06 -27.1 L 168.06 -31.14 C 168.06 -35.9 164.14 -39.76 159.43 -39.76 C 154.39 -39.76 150.7 -35.73 150.7 -31.14 Z M 170.46 -38.64 L 170.46 -0.56 C 170.46 -0.28 170.69 0 171.02 0 L 176.06 0 C 176.34 0 176.62 -0.22 176.62 -0.56 L 176.62 -15.96 C 176.62 -16.24 176.85 -16.52 177.18 -16.52 L 181.1 -16.52 C 181.38 -16.52 181.66 -16.3 181.66 -15.96 L 181.66 -0.56 C 181.66 -0.28 181.89 0 182.22 0 L 187.26 0 C 187.54 0 187.82 -0.22 187.82 -0.56 L 187.82 -38.64 C 187.82 -38.92 187.6 -39.2 187.26 -39.2 L 182.22 -39.2 C 181.94 -39.2 181.66 -38.98 181.66 -38.64 L 181.66 -23.24 C 181.66 -22.96 181.44 -22.68 181.1 -22.68 L 177.18 -22.68 C 176.9 -22.68 176.62 -22.9 176.62 -23.24 L 176.62 -38.64 C 176.62 -38.92 176.4 -39.2 176.06 -39.2 L 171.02 -39.2 C 170.74 -39.2 170.46 -38.98 170.46 -38.64 Z M 190.23 -38.64 L 190.23 -0.56 C 190.23 -0.28 190.46 0 190.79 0 L 195.83 0 C 196.11 0 196.39 -0.22 196.39 -0.56 L 196.39 -38.64 C 196.39 -38.92 196.17 -39.2 195.83 -39.2 L 190.79 -39.2 C 190.51 -39.2 190.23 -38.98 190.23 -38.64 Z M 198.8 -38.64 L 198.8 -0.56 C 198.8 -0.28 199.02 0 199.36 0 L 203.28 0 C 203.56 0 203.84 -0.22 203.84 -0.56 L 203.84 -29.85 C 203.84 -30.13 203.9 -30.18 203.9 -29.85 L 207.7 -0.56 C 207.7 -0.28 207.98 0 208.32 0 L 212.8 0 C 213.14 0 213.42 -0.28 213.42 -0.56 L 217.22 -29.85 C 217.22 -30.13 217.28 -30.18 217.28 -29.85 L 217.28 -0.56 C 217.28 -0.28 217.5 0 217.84 0 L 222.88 0 C 223.16 0 223.44 -0.22 223.44 -0.56 L 223.44 -38.64 C 223.44 -38.92 223.22 -39.2 222.88 -39.2 L 214.48 -39.2 C 214.14 -39.2 213.86 -38.92 213.86 -38.64 L 210.9 -11.37 C 210.9 -11.09 210.84 -11.03 210.78 -11.37 L 207.82 -38.64 C 207.82 -38.92 207.54 -39.2 207.2 -39.2 L 199.36 -39.2 C 199.08 -39.2 198.8 -38.98 198.8 -38.64 Z M 225.85 -38.64 L 225.85 -0.56 C 225.85 -0.28 226.07 0 226.41 0 L 230.33 0 C 230.61 0 230.89 -0.22 230.89 -0.56 L 230.89 -22.57 C 230.89 -22.85 230.94 -22.9 231 -22.57 L 236.38 -0.56 C 236.43 -0.28 236.71 0 237.05 0 L 242.65 0 C 242.93 0 243.21 -0.22 243.21 -0.56 L 243.21 -38.64 C 243.21 -38.92 242.98 -39.2 242.65 -39.2 L 238.73 -39.2 C 238.45 -39.2 238.17 -38.98 238.17 -38.64 L 238.17 -16.69 C 238.17 -16.41 238.11 -16.35 238.06 -16.69 L 232.68 -38.64 C 232.62 -38.92 232.34 -39.2 232.01 -39.2 L 226.41 -39.2 C 226.13 -39.2 225.85 -38.98 225.85 -38.64 Z M 245.62 -38.64 L 245.62 -0.56 C 245.62 -0.28 245.84 0 246.18 0 L 260.18 0 C 260.46 0 260.74 -0.22 260.74 -0.56 L 260.74 -5.6 C 260.74 -5.88 260.51 -6.16 260.18 -6.16 L 252.34 -6.16 C 252.06 -6.16 251.78 -6.38 251.78 -6.72 L 251.78 -15.96 C 251.78 -16.24 252 -16.52 252.34 -16.52 L 257.38 -16.52 C 257.66 -16.52 257.94 -16.74 257.94 -17.08 L 257.94 -22.12 C 257.94 -22.4 257.71 -22.68 257.38 -22.68 L 252.34 -22.68 C 252.06 -22.68 251.78 -22.9 251.78 -23.24 L 251.78 -32.48 C 251.78 -32.76 252 -33.04 252.34 -33.04 L 260.18 -33.04 C 260.46 -33.04 260.74 -33.26 260.74 -33.6 L 260.74 -38.64 C 260.74 -38.92 260.51 -39.2 260.18 -39.2 L 246.18 -39.2 C 245.9 -39.2 245.62 -38.98 245.62 -38.64 Z M 262.64 -38.64 L 268.63 -16.41 L 268.63 -0.56 C 268.63 -0.28 268.86 0 269.19 0 L 274.23 0 C 274.51 0 274.79 -0.22 274.79 -0.56 L 274.79 -16.41 L 280.78 -38.64 C 280.9 -38.98 280.67 -39.2 280.39 -39.2 L 275.35 -39.2 C 275.02 -39.2 274.74 -38.92 274.68 -38.64 L 271.71 -24.92 L 268.74 -38.64 C 268.69 -38.98 268.35 -39.2 268.07 -39.2 L 263.03 -39.2 C 262.7 -39.2 262.53 -38.92 262.64 -38.64 Z M 302.57 -33.04 L 307.55 -33.04 C 307.89 -33.04 308.11 -33.32 308.11 -33.6 L 308.11 -38.64 C 308.11 -38.92 307.89 -39.2 307.55 -39.2 L 302.57 -39.2 C 297.58 -39.2 293.83 -35.17 293.83 -30.58 L 293.83 -27.94 C 293.83 -25.14 295.18 -22.62 297.36 -21.06 C 297.64 -20.83 297.58 -20.55 297.36 -20.38 C 295.18 -18.82 293.83 -16.3 293.83 -13.5 L 293.83 -8.06 C 293.83 -3.47 297.58 0.56 302.57 0.56 L 305.37 0.56 C 310.07 0.56 313.99 -3.3 313.99 -8.06 L 313.99 -17.14 C 313.99 -17.47 314.27 -17.7 314.55 -17.7 L 315.73 -17.7 C 316.06 -17.7 316.29 -17.98 316.29 -18.26 L 316.29 -23.3 C 316.29 -23.58 316.06 -23.86 315.73 -23.86 L 308.39 -23.86 C 308.06 -23.86 307.83 -23.58 307.83 -23.3 L 307.83 -8.06 C 307.83 -6.72 306.71 -5.6 305.37 -5.6 L 302.57 -5.6 C 300.66 -5.6 299.99 -6.27 299.99 -8.06 L 299.99 -15.18 C 299.99 -16.97 300.66 -17.64 302.57 -17.64 L 303.91 -17.64 C 304.25 -17.64 304.47 -17.92 304.47 -18.2 L 304.47 -23.24 C 304.47 -23.58 304.19 -23.8 303.91 -23.8 L 302.57 -23.8 C 300.66 -23.8 299.99 -24.47 299.99 -26.26 L 299.99 -30.58 C 299.99 -32.37 300.66 -33.04 302.57 -33.04 Z M 329.84 -38.64 L 329.84 -0.56 C 329.84 -0.28 330.06 0 330.4 0 L 334.32 0 C 334.6 0 334.88 -0.22 334.88 -0.56 L 334.88 -29.85 C 334.88 -30.13 334.94 -30.18 334.94 -29.85 L 338.74 -0.56 C 338.74 -0.28 339.02 0 339.36 0 L 343.84 0 C 344.18 0 344.46 -0.28 344.46 -0.56 L 348.26 -29.85 C 348.26 -30.13 348.32 -30.18 348.32 -29.85 L 348.32 -0.56 C 348.32 -0.28 348.54 0 348.88 0 L 353.92 0 C 354.2 0 354.48 -0.22 354.48 -0.56 L 354.48 -38.64 C 354.48 -38.92 354.26 -39.2 353.92 -39.2 L 345.52 -39.2 C 345.18 -39.2 344.9 -38.92 344.9 -38.64 L 341.94 -11.37 C 341.94 -11.09 341.88 -11.03 341.82 -11.37 L 338.86 -38.64 C 338.86 -38.92 338.58 -39.2 338.24 -39.2 L 330.4 -39.2 C 330.12 -39.2 329.84 -38.98 329.84 -38.64 Z M 356.78 0 L 361.82 0 C 362.15 0 362.43 -0.28 362.43 -0.56 L 363.05 -5.04 C 363.05 -5.38 363.38 -5.6 363.66 -5.6 L 367.25 -5.6 C 367.58 -5.6 367.86 -5.32 367.86 -5.04 L 368.48 -0.56 C 368.48 -0.22 368.82 0 369.1 0 L 374.14 0 C 374.47 0 374.64 -0.28 374.58 -0.56 L 368.65 -38.64 C 368.59 -38.98 368.26 -39.2 367.98 -39.2 L 362.94 -39.2 C 362.6 -39.2 362.32 -38.92 362.26 -38.64 L 356.33 -0.56 C 356.27 -0.22 356.5 0 356.78 0 Z M 363.94 -12.32 L 365.4 -23.46 C 365.4 -23.8 365.51 -23.74 365.51 -23.46 L 366.97 -12.32 C 366.97 -11.98 366.74 -11.76 366.46 -11.76 L 364.45 -11.76 C 364.11 -11.76 363.94 -12.04 363.94 -12.32 Z M 388.19 -26.54 L 393.23 -26.54 C 393.51 -26.54 393.79 -26.77 393.79 -27.1 L 393.79 -31.14 C 393.79 -35.9 389.87 -39.76 385.17 -39.76 C 380.13 -39.76 376.43 -35.73 376.43 -31.14 L 376.43 -26.54 C 376.43 -19.15 387.63 -16.07 387.63 -12.66 L 387.63 -8.06 C 387.63 -6.72 386.51 -5.6 385.06 -5.6 C 383.71 -5.6 382.59 -6.72 382.59 -8.06 L 382.59 -12.1 C 382.59 -12.43 382.31 -12.66 382.03 -12.66 L 376.99 -12.66 C 376.66 -12.66 376.43 -12.38 376.43 -12.1 L 376.43 -8.06 C 376.43 -3.3 380.35 0.56 385.06 0.56 C 390.1 0.56 393.79 -3.47 393.79 -8.06 L 393.79 -12.66 C 393.79 -20.66 382.59 -23.07 382.59 -26.54 L 382.59 -31.14 C 382.59 -32.48 383.71 -33.6 385.17 -33.6 C 386.51 -33.6 387.63 -32.48 387.63 -31.14 L 387.63 -27.1 C 387.63 -26.82 387.86 -26.54 388.19 -26.54 Z M 396.2 -31.14 L 396.2 -8.06 C 396.2 -3.47 399.9 0.56 404.94 0.56 C 409.64 0.56 413.56 -3.3 413.56 -8.06 L 413.56 -31.14 C 413.56 -35.9 409.64 -39.76 404.94 -39.76 C 399.9 -39.76 396.2 -35.73 396.2 -31.14 Z M 407.4 -31.14 L 407.4 -8.06 C 407.4 -6.72 406.28 -5.6 404.94 -5.6 C 403.48 -5.6 402.36 -6.72 402.36 -8.06 L 402.36 -31.14 C 402.36 -32.48 403.48 -33.6 404.94 -33.6 C 406.28 -33.6 407.4 -32.48 407.4 -31.14 Z M 415.97 -38.64 L 415.97 -0.56 C 415.97 -0.28 416.19 0 416.53 0 L 420.45 0 C 420.73 0 421.01 -0.22 421.01 -0.56 L 421.01 -22.57 C 421.01 -22.85 421.06 -22.9 421.12 -22.57 L 426.5 -0.56 C 426.55 -0.28 426.83 0 427.17 0 L 432.77 0 C 433.05 0 433.33 -0.22 433.33 -0.56 L 433.33 -38.64 C 433.33 -38.92 433.1 -39.2 432.77 -39.2 L 428.85 -39.2 C 428.57 -39.2 428.29 -38.98 428.29 -38.64 L 428.29 -16.69 C 428.29 -16.41 428.23 -16.35 428.18 -16.69 L 422.8 -38.64 C 422.74 -38.92 422.46 -39.2 422.13 -39.2 L 416.53 -39.2 C 416.25 -39.2 415.97 -38.98 415.97 -38.64 Z M 435.74 -38.64 L 435.74 -0.56 C 435.74 -0.28 435.96 0 436.3 0 L 441.34 0 C 441.62 0 441.9 -0.22 441.9 -0.56 L 441.9 -15.96 C 441.9 -16.3 442.18 -16.52 442.46 -16.52 L 443.35 -16.52 C 443.69 -16.52 443.97 -16.24 444.02 -15.96 L 446.82 -0.56 C 446.88 -0.28 447.16 0 447.5 0 L 452.54 0 C 452.82 0 453.04 -0.22 452.98 -0.56 L 449.4 -17.47 C 449.34 -17.81 449.51 -18.2 449.74 -18.37 C 451.81 -19.94 453.1 -22.4 453.1 -25.14 L 453.1 -30.58 C 453.1 -35.17 449.34 -39.2 444.36 -39.2 L 436.3 -39.2 C 436.02 -39.2 435.74 -38.98 435.74 -38.64 Z M 441.9 -23.24 L 441.9 -32.48 C 441.9 -32.82 442.18 -33.04 442.46 -33.04 L 444.36 -33.04 C 446.26 -33.04 446.94 -32.37 446.94 -30.58 L 446.94 -25.14 C 446.94 -23.35 446.26 -22.68 444.36 -22.68 L 442.46 -22.68 C 442.12 -22.68 441.9 -22.96 441.9 -23.24 Z M 454.44 -38.64 L 460.43 -16.41 L 460.43 -0.56 C 460.43 -0.28 460.66 0 460.99 0 L 466.03 0 C 466.31 0 466.59 -0.22 466.59 -0.56 L 466.59 -16.41 L 472.58 -38.64 C 472.7 -38.98 472.47 -39.2 472.19 -39.2 L 467.15 -39.2 C 466.82 -39.2 466.54 -38.92 466.48 -38.64 L 463.51 -24.92 L 460.54 -38.64 C 460.49 -38.98 460.15 -39.2 459.87 -39.2 L 454.83 -39.2 C 454.5 -39.2 454.33 -38.92 454.44 -38.64 Z" stroke-linecap="round" />
</g>
</g>
</g>
<g transform="matrix(1.1492789465785347 1.5394771851323579 -1.539477185132358 1.149278946578535 443.08162445045866 660.5863025150051)" id="tagline-961edc89-72f7-42c5-8d29-ffaba927f8bb-logo-0"  >
<g style=""  paint-order="stroke"   >
		<g transform="matrix(1 0 0 1 0 0)" id="c94c79b6-7f91-4eef-91d9-dcd0236aa42e-path-0"  >
<path style="stroke: none; stroke-width: 0; stroke-dasharray: none; stroke-linecap: butt; stroke-dashoffset: 0; stroke-linejoin: miter; stroke-miterlimit: 4; fill: rgb(238,238,238); fill-rule: nonzero; opacity: 1;"  paint-order="stroke"  transform=" translate(-5.5, 9.8)" d="M 6.92 -16.8 L 10.16 -16.8 L 10.16 -19.6 L 0.84 -19.6 L 0.84 -16.8 L 4.12 -16.8 L 4.12 0 L 6.92 0 Z" stroke-linecap="round" />
</g>
</g>
</g>
<g transform="matrix(1.2863693345977523 1.4269148662755784 -1.4269148662755788 1.286369334597752 457.47436405269906 678.1212321772309)" id="tagline-961edc89-72f7-42c5-8d29-ffaba927f8bb-logo-1"  >
<g style=""  paint-order="stroke"   >
		<g transform="matrix(1 0 0 1 0 0)" id="6b159c4b-935a-452c-99c8-c40b3b0f35b9-path-0"  >
<path style="stroke: none; stroke-width: 0; stroke-dasharray: none; stroke-linecap: butt; stroke-dashoffset: 0; stroke-linejoin: miter; stroke-miterlimit: 4; fill: rgb(238,238,238); fill-rule: nonzero; opacity: 1;"  paint-order="stroke"  transform=" translate(-5.5, 9.8)" d="M 10.16 -12.6 L 10.16 -14.92 C 10.16 -17.5 8.09 -19.6 5.52 -19.6 L 0.84 -19.6 L 0.84 0 L 3.64 0 L 3.64 -7.92 L 5.52 -7.92 C 6.52 -7.92 7.36 -7.08 7.36 -6.08 L 7.36 0 L 10.16 0 L 10.16 -6.08 C 10.16 -7.34 9.66 -8.48 8.85 -9.32 C 9.66 -10.16 10.16 -11.34 10.16 -12.6 Z M 5.52 -10.72 L 3.64 -10.72 L 3.64 -16.8 L 5.52 -16.8 C 6.52 -16.8 7.36 -15.96 7.36 -14.92 L 7.36 -12.6 C 7.36 -11.56 6.52 -10.72 5.52 -10.72 Z" stroke-linecap="round" />
</g>
</g>
</g>
<g transform="matrix(1.4177219148212592 1.2964939925920438 -1.2964939925920438 1.4177219148212592 474.0536542042573 695.090187445337)" id="tagline-961edc89-72f7-42c5-8d29-ffaba927f8bb-logo-2"  >
<g style=""  paint-order="stroke"   >
		<g transform="matrix(1 0 0 1 0 0)" id="d1e9ed5b-0276-4be3-a29f-b22954bd2460-path-0"  >
<path style="stroke: none; stroke-width: 0; stroke-dasharray: none; stroke-linecap: butt; stroke-dashoffset: 0; stroke-linejoin: miter; stroke-miterlimit: 4; fill: rgb(238,238,238); fill-rule: nonzero; opacity: 1;"  paint-order="stroke"  transform=" translate(-5.9799999999999995, 9.700000000000001)" d="M 11.12 -4.96 L 11.12 -19.6 L 8.32 -19.6 L 8.32 -4.96 C 8.32 -3.67 7.25 -2.6 5.96 -2.6 C 4.68 -2.6 3.64 -3.67 3.64 -4.96 L 3.64 -19.6 L 0.84 -19.6 L 0.84 -4.96 C 0.84 -2.13 3.14 0.2 5.96 0.2 C 8.79 0.2 11.12 -2.13 11.12 -4.96 Z" stroke-linecap="round" />
</g>
</g>
</g>
<g transform="matrix(1.5405446070461402 1.1478477313183872 -1.1478477313183875 1.5405446070461404 493.231496209656 710.6942505985257)" id="tagline-961edc89-72f7-42c5-8d29-ffaba927f8bb-logo-3"  >
<g style=""  paint-order="stroke"   >
		<g transform="matrix(1 0 0 1 0 0)" id="b1958890-5345-415a-8ce0-ae8c316f0d4f-path-0"  >
<path style="stroke: none; stroke-width: 0; stroke-dasharray: none; stroke-linecap: butt; stroke-dashoffset: 0; stroke-linejoin: miter; stroke-miterlimit: 4; fill: rgb(238,238,238); fill-rule: nonzero; opacity: 1;"  paint-order="stroke"  transform=" translate(-6.005000000000001, 9.8)" d="M 7.78 -10.16 C 5.21 -11.98 3.67 -13.24 3.67 -14.64 C 3.67 -15.93 4.7 -17 5.99 -17 C 7.28 -17 8.34 -15.93 8.34 -14.64 L 11.14 -14.64 C 11.14 -17.47 8.82 -19.8 5.99 -19.8 C 3.16 -19.8 0.87 -17.47 0.87 -14.64 C 0.87 -11.9 3.16 -10.3 4.7 -9.07 L 6.02 -7.98 C 7.76 -6.55 8.34 -6.33 8.34 -4.96 C 8.34 -3.67 7.28 -2.6 5.99 -2.6 C 4.7 -2.6 3.67 -3.67 3.67 -4.96 L 0.87 -4.96 C 0.87 -2.13 3.16 0.2 5.99 0.2 C 8.82 0.2 11.14 -2.13 11.14 -4.96 C 11.14 -7.7 9.77 -8.6 7.78 -10.16 Z" stroke-linecap="round" />
</g>
</g>
</g>
<g transform="matrix(1.6438605268730577 0.9942608655581036 -0.9942608655581037 1.643860526873058 512.7985207582403 723.8530648292547)" id="tagline-961edc89-72f7-42c5-8d29-ffaba927f8bb-logo-4"  >
<g style=""  paint-order="stroke"   >
		<g transform="matrix(1 0 0 1 0 0)" id="71e8befa-b5ce-47ee-b2b8-416d95e886c8-path-0"  >
<path style="stroke: none; stroke-width: 0; stroke-dasharray: none; stroke-linecap: butt; stroke-dashoffset: 0; stroke-linejoin: miter; stroke-miterlimit: 4; fill: rgb(238,238,238); fill-rule: nonzero; opacity: 1;"  paint-order="stroke"  transform=" translate(-5.5, 9.8)" d="M 6.92 -16.8 L 10.16 -16.8 L 10.16 -19.6 L 0.84 -19.6 L 0.84 -16.8 L 4.12 -16.8 L 4.12 0 L 6.92 0 Z" stroke-linecap="round" />
</g>
</g>
</g>
<g transform="matrix(1.7249069913881898 0.8458888648350084 -0.8458888648350085 1.72490699138819 531.8183760507195 734.2473150562747)" id="tagline-961edc89-72f7-42c5-8d29-ffaba927f8bb-logo-5"  >
<g style=""  paint-order="stroke"   >
		<g transform="matrix(1 0 0 1 0 0)" id="e839aa51-a941-454d-a820-3508b373cf9f-path-0"  >
<path style="stroke: none; stroke-width: 0; stroke-dasharray: none; stroke-linecap: butt; stroke-dashoffset: 0; stroke-linejoin: miter; stroke-miterlimit: 4; fill: rgb(238,238,238); fill-rule: nonzero; opacity: 1;"  paint-order="stroke"  transform=" translate(-5.04, 9.8)" d="M 3.64 -11.2 L 3.64 -16.8 L 9.24 -16.8 L 9.24 -19.6 L 0.84 -19.6 L 0.84 0 L 9.24 0 L 9.24 -2.8 L 3.64 -2.8 L 3.64 -8.4 L 7.36 -8.4 L 7.36 -11.2 Z" stroke-linecap="round" />
</g>
</g>
</g>
<g transform="matrix(1.7953611585943652 0.6837473296492015 -0.6837473296492015 1.7953611585943654 552.5435262717151 743.2516546104937)" id="tagline-961edc89-72f7-42c5-8d29-ffaba927f8bb-logo-6"  >
<g style=""  paint-order="stroke"   >
		<g transform="matrix(1 0 0 1 0 0)" id="3f412008-7087-4e2f-b580-b65ca47d97d1-path-0"  >
<path style="stroke: none; stroke-width: 0; stroke-dasharray: none; stroke-linecap: butt; stroke-dashoffset: 0; stroke-linejoin: miter; stroke-miterlimit: 4; fill: rgb(238,238,238); fill-rule: nonzero; opacity: 1;"  paint-order="stroke"  transform=" translate(-5.9799999999999995, 9.8)" d="M 5.96 -19.6 L 0.84 -19.6 L 0.84 0 L 5.96 0 C 8.79 0 11.12 -2.3 11.12 -5.12 L 11.12 -14.48 C 11.12 -17.3 8.79 -19.6 5.96 -19.6 Z M 5.96 -2.8 L 3.64 -2.8 L 3.64 -16.8 L 5.96 -16.8 C 7.25 -16.8 8.32 -15.76 8.32 -14.48 L 8.32 -5.12 C 8.32 -3.84 7.25 -2.8 5.96 -2.8 Z" stroke-linecap="round" />
</g>
</g>
</g>
<g transform="matrix(0.9608328508606832 0.27712854906510853 -0.27712854906510853 0.9608328508606832 290.7242862556158 394.27545289352463)" id="tagline-961edc89-72f7-42c5-8d29-ffaba927f8bb-logo-7"  >
<g style=""  paint-order="stroke"   >
		<g transform="matrix(1 0 0 1 0 0)" id="0ee1b842-d1f7-477a-8792-8e3cd78c1f2d-path-0"  >
<path style="stroke: none; stroke-width: 0; stroke-dasharray: none; stroke-linecap: butt; stroke-dashoffset: 0; stroke-linejoin: miter; stroke-miterlimit: 4; fill: rgb(238,238,238); fill-rule: nonzero; opacity: 1;"  paint-order="stroke"  transform=" translate(0, 0)" d="" stroke-linecap="round" />
</g>
</g>
</g>
<g transform="matrix(1.8837214144013086 0.3773933405846597 -0.37739334058465973 1.8837214144013086 591.7209472577082 754.5559368537329)" id="tagline-961edc89-72f7-42c5-8d29-ffaba927f8bb-logo-8"  >
<g style=""  paint-order="stroke"   >
		<g transform="matrix(1 0 0 1 0 0)" id="75f2662b-dca8-4968-8f7a-4d4b66a3cb90-path-0"  >
<path style="stroke: none; stroke-width: 0; stroke-dasharray: none; stroke-linecap: butt; stroke-dashoffset: 0; stroke-linejoin: miter; stroke-miterlimit: 4; fill: rgb(238,238,238); fill-rule: nonzero; opacity: 1;"  paint-order="stroke"  transform=" translate(-5.9799999999999995, 9.8)" d="M 5.96 -2.6 C 4.68 -2.6 3.64 -3.67 3.64 -4.96 L 3.64 -14.64 C 3.64 -15.93 4.68 -17 5.96 -17 C 7.25 -17 8.32 -15.93 8.32 -14.64 L 11.12 -14.64 C 11.12 -17.47 8.79 -19.8 5.96 -19.8 C 3.14 -19.8 0.84 -17.47 0.84 -14.64 L 0.84 -4.96 C 0.84 -2.13 3.14 0.2 5.96 0.2 C 8.79 0.2 11.12 -2.13 11.12 -4.96 L 8.32 -4.96 C 8.32 -3.67 7.25 -2.6 5.96 -2.6 Z" stroke-linecap="round" />
</g>
</g>
</g>
<g transform="matrix(1.9112974248124994 0.19435599938469778 -0.1943559993846978 1.9112974248124996 615.0888324678376 758.079588135897)" id="tagline-961edc89-72f7-42c5-8d29-ffaba927f8bb-logo-9"  >
<g style=""  paint-order="stroke"   >
		<g transform="matrix(1 0 0 1 0 0)" id="ff057c24-835f-4275-b652-400a46507f5c-path-0"  >
<path style="stroke: none; stroke-width: 0; stroke-dasharray: none; stroke-linecap: butt; stroke-dashoffset: 0; stroke-linejoin: miter; stroke-miterlimit: 4; fill: rgb(238,238,238); fill-rule: nonzero; opacity: 1;"  paint-order="stroke"  transform=" translate(-5.5, 9.8)" d="M 10.16 -12.6 L 10.16 -14.92 C 10.16 -17.5 8.09 -19.6 5.52 -19.6 L 0.84 -19.6 L 0.84 0 L 3.64 0 L 3.64 -7.92 L 5.52 -7.92 C 6.52 -7.92 7.36 -7.08 7.36 -6.08 L 7.36 0 L 10.16 0 L 10.16 -6.08 C 10.16 -7.34 9.66 -8.48 8.85 -9.32 C 9.66 -10.16 10.16 -11.34 10.16 -12.6 Z M 5.52 -10.72 L 3.64 -10.72 L 3.64 -16.8 L 5.52 -16.8 C 6.52 -16.8 7.36 -15.96 7.36 -14.92 L 7.36 -12.6 C 7.36 -11.56 6.52 -10.72 5.52 -10.72 Z" stroke-linecap="round" />
</g>
</g>
</g>
<g transform="matrix(1.921153017875907 0.0017839557195474616 -0.0017839557195474618 1.921153017875907 639.7716354335297 759.345705182873)" id="tagline-961edc89-72f7-42c5-8d29-ffaba927f8bb-logo-10"  >
<g style=""  paint-order="stroke"   >
		<g transform="matrix(1 0 0 1 0 0)" id="6a7fe4e3-553d-4a15-88b2-819202678c06-path-0"  >
<path style="stroke: none; stroke-width: 0; stroke-dasharray: none; stroke-linecap: butt; stroke-dashoffset: 0; stroke-linejoin: miter; stroke-miterlimit: 4; fill: rgb(238,238,238); fill-rule: nonzero; opacity: 1;"  paint-order="stroke"  transform=" translate(-6.4399999999999995, 9.8)" d="M 4.34 -3.72 L 8.54 -3.72 L 9.24 0 L 12.04 0 L 8.32 -19.6 L 4.56 -19.6 L 0.84 0 L 3.64 0 Z M 7.98 -6.66 L 4.9 -6.66 L 6.44 -14.7 Z" stroke-linecap="round" />
</g>
</g>
</g>
<g transform="matrix(1.912463968423162 -0.18252032784007619 0.18252032784007619 1.912463968423162 663.3438328474 758.2360739232327)" id="tagline-961edc89-72f7-42c5-8d29-ffaba927f8bb-logo-11"  >
<g style=""  paint-order="stroke"   >
		<g transform="matrix(1 0 0 1 0 0)" id="b70014c8-d645-4b25-8dad-054b3fc46771-path-0"  >
<path style="stroke: none; stroke-width: 0; stroke-dasharray: none; stroke-linecap: butt; stroke-dashoffset: 0; stroke-linejoin: miter; stroke-miterlimit: 4; fill: rgb(238,238,238); fill-rule: nonzero; opacity: 1;"  paint-order="stroke"  transform=" translate(-5.04, 9.8)" d="M 3.64 -11.2 L 3.64 -16.8 L 9.24 -16.8 L 9.24 -19.6 L 0.84 -19.6 L 0.84 0 L 3.64 0 L 3.64 -8.4 L 7.36 -8.4 L 7.36 -11.2 Z" stroke-linecap="round" />
</g>
</g>
</g>
<g transform="matrix(1.889012148010392 -0.3499502896996669 0.3499502896996669 1.889012148010392 684.7038677819722 755.2454804690788)" id="tagline-961edc89-72f7-42c5-8d29-ffaba927f8bb-logo-12"  >
<g style=""  paint-order="stroke"   >
		<g transform="matrix(1 0 0 1 0 0)" id="2ddead2c-a5c1-4a8f-b815-f71f563b843b-path-0"  >
<path style="stroke: none; stroke-width: 0; stroke-dasharray: none; stroke-linecap: butt; stroke-dashoffset: 0; stroke-linejoin: miter; stroke-miterlimit: 4; fill: rgb(238,238,238); fill-rule: nonzero; opacity: 1;"  paint-order="stroke"  transform=" translate(-5.5, 9.8)" d="M 6.92 -16.8 L 10.16 -16.8 L 10.16 -19.6 L 0.84 -19.6 L 0.84 -16.8 L 4.12 -16.8 L 4.12 0 L 6.92 0 Z" stroke-linecap="round" />
</g>
</g>
</g>
<g transform="matrix(1.8465654921278545 -0.5301207257543614 0.5301207257543614 1.8465654921278545 707.8366964624153 749.7969020027431)" id="tagline-961edc89-72f7-42c5-8d29-ffaba927f8bb-logo-13"  >
<g style=""  paint-order="stroke"   >
		<g transform="matrix(1 0 0 1 0 0)" id="ca0118c1-6965-444f-8e4f-ba29a4120234-path-0"  >
<path style="stroke: none; stroke-width: 0; stroke-dasharray: none; stroke-linecap: butt; stroke-dashoffset: 0; stroke-linejoin: miter; stroke-miterlimit: 4; fill: rgb(238,238,238); fill-rule: nonzero; opacity: 1;"  paint-order="stroke"  transform=" translate(-6.005000000000001, 9.8)" d="M 7.78 -10.16 C 5.21 -11.98 3.67 -13.24 3.67 -14.64 C 3.67 -15.93 4.7 -17 5.99 -17 C 7.28 -17 8.34 -15.93 8.34 -14.64 L 11.14 -14.64 C 11.14 -17.47 8.82 -19.8 5.99 -19.8 C 3.16 -19.8 0.87 -17.47 0.87 -14.64 C 0.87 -11.9 3.16 -10.3 4.7 -9.07 L 6.02 -7.98 C 7.76 -6.55 8.34 -6.33 8.34 -4.96 C 8.34 -3.67 7.28 -2.6 5.99 -2.6 C 4.7 -2.6 3.67 -3.67 3.67 -4.96 L 0.87 -4.96 C 0.87 -2.13 3.16 0.2 5.99 0.2 C 8.82 0.2 11.14 -2.13 11.14 -4.96 C 11.14 -7.7 9.77 -8.6 7.78 -10.16 Z" stroke-linecap="round" />
</g>
</g>
</g>
<g transform="matrix(1.7781065877675004 -0.7274400752842354 0.7274400752842355 1.7781065877675004 732.9832465043066 741.0704955480026)" id="tagline-961edc89-72f7-42c5-8d29-ffaba927f8bb-logo-14"  >
<g style=""  paint-order="stroke"   >
		<g transform="matrix(1 0 0 1 0 0)" id="8eb8d55a-8fdf-46a6-8a2c-a0f9f46382a5-path-0"  >
<path style="stroke: none; stroke-width: 0; stroke-dasharray: none; stroke-linecap: butt; stroke-dashoffset: 0; stroke-linejoin: miter; stroke-miterlimit: 4; fill: rgb(238,238,238); fill-rule: nonzero; opacity: 1;"  paint-order="stroke"  transform=" translate(-6.9, 9.8)" d="M 12.96 0 L 12.96 -19.6 L 10.16 -19.6 L 6.92 -7.9 L 3.64 -19.6 L 0.84 -19.6 L 0.84 0 L 3.64 0 L 3.64 -9.58 L 5.52 -2.88 L 8.32 -2.88 L 10.16 -9.58 L 10.16 0 Z" stroke-linecap="round" />
</g>
</g>
</g>
<g transform="matrix(1.6849322546782937 -0.9229492931556091 0.9229492931556093 1.6849322546782939 758.0368025818493 729.1346959829385)" id="tagline-961edc89-72f7-42c5-8d29-ffaba927f8bb-logo-15"  >
<g style=""  paint-order="stroke"   >
		<g transform="matrix(1 0 0 1 0 0)" id="d056b834-a152-44c1-8993-c6715be4e19d-path-0"  >
<path style="stroke: none; stroke-width: 0; stroke-dasharray: none; stroke-linecap: butt; stroke-dashoffset: 0; stroke-linejoin: miter; stroke-miterlimit: 4; fill: rgb(238,238,238); fill-rule: nonzero; opacity: 1;"  paint-order="stroke"  transform=" translate(-6.4399999999999995, 9.8)" d="M 4.34 -3.72 L 8.54 -3.72 L 9.24 0 L 12.04 0 L 8.32 -19.6 L 4.56 -19.6 L 0.84 0 L 3.64 0 Z M 7.98 -6.66 L 4.9 -6.66 L 6.44 -14.7 Z" stroke-linecap="round" />
</g>
</g>
</g>
<g transform="matrix(1.5815672950918307 -1.090631464651385 1.090631464651385 1.581567295091831 779.4713864429561 715.9241415142765)" id="tagline-961edc89-72f7-42c5-8d29-ffaba927f8bb-logo-16"  >
<g style=""  paint-order="stroke"   >
		<g transform="matrix(1 0 0 1 0 0)" id="653403df-d3c1-49a8-b9aa-422b1ec5ed0c-path-0"  >
<path style="stroke: none; stroke-width: 0; stroke-dasharray: none; stroke-linecap: butt; stroke-dashoffset: 0; stroke-linejoin: miter; stroke-miterlimit: 4; fill: rgb(238,238,238); fill-rule: nonzero; opacity: 1;"  paint-order="stroke"  transform=" translate(-5.77, 9.8)" d="M 10.7 0 L 10.7 -19.6 L 7.9 -19.6 L 7.9 -7.78 L 3.64 -19.6 L 0.84 -19.6 L 0.84 0 L 3.64 0 L 3.64 -11.82 L 7.9 0 Z" stroke-linecap="round" />
</g>
</g>
</g>
<g transform="matrix(1.4665806673551525 -1.2409565853533442 1.2409565853533442 1.4665806673551527 798.737149692651 701.1856753416073)" id="tagline-961edc89-72f7-42c5-8d29-ffaba927f8bb-logo-17"  >
<g style=""  paint-order="stroke"   >
		<g transform="matrix(1 0 0 1 0 0)" id="7dd39e98-6859-4d20-bb00-92e6f783953a-path-0"  >
<path style="stroke: none; stroke-width: 0; stroke-dasharray: none; stroke-linecap: butt; stroke-dashoffset: 0; stroke-linejoin: miter; stroke-miterlimit: 4; fill: rgb(238,238,238); fill-rule: nonzero; opacity: 1;"  paint-order="stroke"  transform=" translate(-6.005000000000001, 9.8)" d="M 7.78 -10.16 C 5.21 -11.98 3.67 -13.24 3.67 -14.64 C 3.67 -15.93 4.7 -17 5.99 -17 C 7.28 -17 8.34 -15.93 8.34 -14.64 L 11.14 -14.64 C 11.14 -17.47 8.82 -19.8 5.99 -19.8 C 3.16 -19.8 0.87 -17.47 0.87 -14.64 C 0.87 -11.9 3.16 -10.3 4.7 -9.07 L 6.02 -7.98 C 7.76 -6.55 8.34 -6.33 8.34 -4.96 C 8.34 -3.67 7.28 -2.6 5.99 -2.6 C 4.7 -2.6 3.67 -3.67 3.67 -4.96 L 0.87 -4.96 C 0.87 -2.13 3.16 0.2 5.99 0.2 C 8.82 0.2 11.14 -2.13 11.14 -4.96 C 11.14 -7.7 9.77 -8.6 7.78 -10.16 Z" stroke-linecap="round" />
</g>
</g>
</g>
<g transform="matrix(1.3373608579755283 -1.3792382086306467 1.3792382086306467 1.3373608579755283 816.3823459304981 684.6927351677472)" id="tagline-961edc89-72f7-42c5-8d29-ffaba927f8bb-logo-18"  >
<g style=""  paint-order="stroke"   >
		<g transform="matrix(1 0 0 1 0 0)" id="d5a044b7-c7ff-4f69-8f88-b9f69b6c2cd1-path-0"  >
<path style="stroke: none; stroke-width: 0; stroke-dasharray: none; stroke-linecap: butt; stroke-dashoffset: 0; stroke-linejoin: miter; stroke-miterlimit: 4; fill: rgb(238,238,238); fill-rule: nonzero; opacity: 1;"  paint-order="stroke"  transform=" translate(-5.77, 9.8)" d="M 10.7 0 L 10.7 -19.6 L 7.9 -19.6 L 7.9 -11.2 L 3.64 -11.2 L 3.64 -19.6 L 0.84 -19.6 L 0.84 0 L 3.64 0 L 3.64 -8.4 L 7.9 -8.4 L 7.9 0 Z" stroke-linecap="round" />
</g>
</g>
</g>
<g transform="matrix(1.2443136712909377 -1.4637334415904362 1.4637334415904362 1.2443136712909377 827.1974868128449 672.7830720996812)" id="tagline-961edc89-72f7-42c5-8d29-ffaba927f8bb-logo-19"  >
<g style=""  paint-order="stroke"   >
		<g transform="matrix(1 0 0 1 0 0)" id="aa9af072-aebc-44f4-b01a-31de26f60a39-path-0"  >
<path style="stroke: none; stroke-width: 0; stroke-dasharray: none; stroke-linecap: butt; stroke-dashoffset: 0; stroke-linejoin: miter; stroke-miterlimit: 4; fill: rgb(238,238,238); fill-rule: nonzero; opacity: 1;"  paint-order="stroke"  transform=" translate(-2.24, 9.8)" d="M 0.84 -19.6 L 0.84 0 L 3.64 0 L 3.64 -19.6 Z" stroke-linecap="round" />
</g>
</g>
</g>
<g transform="matrix(1.1492789465785345 -1.539477185132358 1.539477185132358 1.1492789465785345 836.8540399495414 660.6724777919281)" id="tagline-961edc89-72f7-42c5-8d29-ffaba927f8bb-logo-20"  >
<g style=""  paint-order="stroke"   >
		<g transform="matrix(1 0 0 1 0 0)" id="37ba50fb-3819-405e-b892-f6991c94c1c9-path-0"  >
<path style="stroke: none; stroke-width: 0; stroke-dasharray: none; stroke-linecap: butt; stroke-dashoffset: 0; stroke-linejoin: miter; stroke-miterlimit: 4; fill: rgb(238,238,238); fill-rule: nonzero; opacity: 1;"  paint-order="stroke"  transform=" translate(-5.5, 9.8)" d="M 5.52 -19.6 L 0.84 -19.6 L 0.84 0 L 3.64 0 L 3.64 -7.92 L 5.52 -7.92 C 8.09 -7.92 10.16 -10.02 10.16 -12.6 L 10.16 -14.92 C 10.16 -17.5 8.09 -19.6 5.52 -19.6 Z M 5.52 -10.72 L 3.64 -10.72 L 3.64 -16.8 L 5.52 -16.8 C 6.52 -16.8 7.36 -15.96 7.36 -14.92 L 7.36 -12.6 C 7.36 -11.56 6.52 -10.72 5.52 -10.72 Z" stroke-linecap="round" />
</g>
</g>
</g>
<g transform="matrix(1.9211538461538462 0 0 1.9211538461538462 640.0000000000001 843.6837460373663)" id="tagline-f71a1183-3d31-4a10-a715-b3bf708b7659-logo"  >
<filter id="SVGID_387849" y="-20%" height="140%" x="-20.647944185026173%" width="141.29588837005235%" >
	<feGaussianBlur in="SourceAlpha" stdDeviation="0"></feGaussianBlur>
	<feOffset dx="-2" dy="0" result="oBlur" ></feOffset>
	<feFlood flood-color="rgb(225,84,36)" flood-opacity="1"/>
	<feComposite in2="oBlur" operator="in" />
	<feMerge>
		<feMergeNode></feMergeNode>
		<feMergeNode in="SourceGraphic"></feMergeNode>
	</feMerge>
</filter>
<g style="filter: url(#SVGID_387849);"  paint-order="stroke"   >
		<g transform="matrix(0.7292510937647132 0.6842461854062245 -0.6842461854062245 0.7292510937647132 -125.21013696267994 -27.425107097567746)"  >
<g style=""  paint-order="stroke"   >
		<g transform="matrix(1 0 0 1 0 -3.55271e-15)" id="b910e80c-d5aa-4fae-9b6f-476feb72d6b4-path-0"  >
<path style="stroke: rgb(255,255,255); stroke-width: 0; stroke-dasharray: none; stroke-linecap: butt; stroke-dashoffset: 0; stroke-linejoin: miter; stroke-miterlimit: 4; fill: rgb(255,255,255); fill-rule: nonzero; opacity: 1;"  paint-order="stroke"  transform=" translate(-9.513264865603391, 18.9)" d="M 1.62 -7.56 L 11.34 -7.56 C 11.66 -7.56 11.88 -7.29 11.88 -7.02 L 11.88 -0.54 C 11.88 -0.27 12.1 0 12.42 0 L 17.28 0 C 17.55 0 17.82 -0.22 17.82 -0.54 L 17.82 -37.26 C 17.82 -37.53 17.6 -37.8 17.28 -37.8 L 9.72 -37.8 C 9.4 -37.8 9.13 -37.53 9.02 -37.26 L 1.24 -8.1 C 1.13 -7.83 1.3 -7.56 1.62 -7.56 Z M 8.64 -14.04 L 11.77 -26.41 C 11.83 -26.73 11.88 -26.68 11.88 -26.41 L 11.88 -14.04 C 11.88 -13.72 11.61 -13.5 11.34 -13.5 L 9.07 -13.5 C 8.75 -13.5 8.59 -13.77 8.64 -14.04 Z" stroke-linecap="round" />
</g>
</g>
</g>
		<g transform="matrix(0.824086564746975 0.5664638857010479 -0.5664638857010479 0.824086564746975 -103.61973202682765 -10.041639643860128)"  >
<g style=""  paint-order="stroke"   >
		<g transform="matrix(1 0 0 1 0 0)" id="00483fdb-ae81-44b8-a155-1fd2b3079c0d-path-0"  >
<path style="stroke: rgb(255,255,255); stroke-width: 0; stroke-dasharray: none; stroke-linecap: butt; stroke-dashoffset: 0; stroke-linejoin: miter; stroke-miterlimit: 4; fill: rgb(255,255,255); fill-rule: nonzero; opacity: 1;"  paint-order="stroke"  transform=" translate(-9.614999999999998, 18.900000000000002)" d="M 9.61 -38.34 C 4.81 -38.34 1.19 -34.45 1.19 -30.02 L 1.19 -26.41 C 1.19 -24.19 2.11 -22.14 3.56 -20.63 C 3.78 -20.41 3.73 -20.09 3.56 -19.87 C 2.05 -18.36 1.19 -16.31 1.19 -14.09 L 1.19 -7.78 C 1.19 -3.35 4.81 0.54 9.61 0.54 C 14.42 0.54 18.04 -3.35 18.04 -7.78 L 18.04 -14.09 C 18.04 -16.31 17.12 -18.36 15.66 -19.87 C 15.5 -20.09 15.44 -20.41 15.66 -20.63 C 17.17 -22.14 18.04 -24.19 18.04 -26.41 L 18.04 -30.02 C 18.04 -34.45 14.42 -38.34 9.61 -38.34 Z M 9.61 -5.4 C 7.78 -5.4 7.13 -6.05 7.13 -7.78 L 7.13 -14.63 C 7.13 -16.36 7.78 -17.01 9.61 -17.01 C 11.45 -17.01 12.1 -16.36 12.1 -14.63 L 12.1 -7.78 C 12.1 -6.05 11.45 -5.4 9.61 -5.4 Z M 9.61 -32.4 C 11.45 -32.4 12.1 -31.75 12.1 -30.02 L 12.1 -25.33 C 12.1 -23.6 11.45 -22.95 9.61 -22.95 C 7.78 -22.95 7.13 -23.6 7.13 -25.33 L 7.13 -30.02 C 7.13 -31.75 7.78 -32.4 9.61 -32.4 Z" stroke-linecap="round" />
</g>
</g>
</g>
		<g transform="matrix(0.9000781124773908 0.43572857542183 -0.43572857542183 0.9000781124773908 -79.74329964492851 3.836005543588125)"  >
<g style=""  paint-order="stroke"   >
		<g transform="matrix(1 0 0 1 0 0)" id="76bdfc71-950c-4e36-bfae-416762c56ee0-path-0"  >
<path style="stroke: rgb(255,255,255); stroke-width: 0; stroke-dasharray: none; stroke-linecap: butt; stroke-dashoffset: 0; stroke-linejoin: miter; stroke-miterlimit: 4; fill: rgb(255,255,255); fill-rule: nonzero; opacity: 1;"  paint-order="stroke"  transform=" translate(-9.513264865603391, 18.9)" d="M 1.62 -7.56 L 11.34 -7.56 C 11.66 -7.56 11.88 -7.29 11.88 -7.02 L 11.88 -0.54 C 11.88 -0.27 12.1 0 12.42 0 L 17.28 0 C 17.55 0 17.82 -0.22 17.82 -0.54 L 17.82 -37.26 C 17.82 -37.53 17.6 -37.8 17.28 -37.8 L 9.72 -37.8 C 9.4 -37.8 9.13 -37.53 9.02 -37.26 L 1.24 -8.1 C 1.13 -7.83 1.3 -7.56 1.62 -7.56 Z M 8.64 -14.04 L 11.77 -26.41 C 11.83 -26.73 11.88 -26.68 11.88 -26.41 L 11.88 -14.04 C 11.88 -13.72 11.61 -13.5 11.34 -13.5 L 9.07 -13.5 C 8.75 -13.5 8.59 -13.77 8.64 -14.04 Z" stroke-linecap="round" />
</g>
</g>
</g>
		<g transform="matrix(0.9507263206799814 0.3100313906144105 -0.3100313906144105 0.9507263206799814 -56.749681893769335 13.104416110894356)"  >
<g style=""  paint-order="stroke"   >
		<g transform="matrix(1 0 0 1 0 0)" id="542057ad-1b80-4e40-a1ef-437dc208fc5c-path-0"  >
<path style="stroke: rgb(255,255,255); stroke-width: 0; stroke-dasharray: none; stroke-linecap: butt; stroke-dashoffset: 0; stroke-linejoin: miter; stroke-miterlimit: 4; fill: rgb(255,255,255); fill-rule: nonzero; opacity: 1;"  paint-order="stroke"  transform=" translate(-7.130000000000001, 18.9)" d="M 12.53 -21.87 L 1.73 -21.87 C 1.46 -21.87 1.19 -21.65 1.19 -21.33 L 1.19 -16.47 C 1.19 -16.2 1.4 -15.93 1.73 -15.93 L 12.53 -15.93 C 12.8 -15.93 13.07 -16.15 13.07 -16.47 L 13.07 -21.33 C 13.07 -21.6 12.85 -21.87 12.53 -21.87 Z" stroke-linecap="round" />
</g>
</g>
</g>
		<g transform="matrix(0.9839144178868766 0.17864047210620765 -0.17864047210620765 0.9839144178868766 -32.70723001733639 19.179571972450496)"  >
<g style=""  paint-order="stroke"   >
		<g transform="matrix(1 0 0 1 0 0)" id="443cbb03-8147-419f-99b1-b3101d9a2880-path-0"  >
<path style="stroke: rgb(255,255,255); stroke-width: 0; stroke-dasharray: none; stroke-linecap: butt; stroke-dashoffset: 0; stroke-linejoin: miter; stroke-miterlimit: 4; fill: rgb(255,255,255); fill-rule: nonzero; opacity: 1;"  paint-order="stroke"  transform=" translate(-9.513264865603391, 18.9)" d="M 1.62 -7.56 L 11.34 -7.56 C 11.66 -7.56 11.88 -7.29 11.88 -7.02 L 11.88 -0.54 C 11.88 -0.27 12.1 0 12.42 0 L 17.28 0 C 17.55 0 17.82 -0.22 17.82 -0.54 L 17.82 -37.26 C 17.82 -37.53 17.6 -37.8 17.28 -37.8 L 9.72 -37.8 C 9.4 -37.8 9.13 -37.53 9.02 -37.26 L 1.24 -8.1 C 1.13 -7.83 1.3 -7.56 1.62 -7.56 Z M 8.64 -14.04 L 11.77 -26.41 C 11.83 -26.73 11.88 -26.68 11.88 -26.41 L 11.88 -14.04 C 11.88 -13.72 11.61 -13.5 11.34 -13.5 L 9.07 -13.5 C 8.75 -13.5 8.59 -13.77 8.64 -14.04 Z" stroke-linecap="round" />
</g>
</g>
</g>
		<g transform="matrix(0.9995887351597974 0.028676829351174712 -0.028676829351174712 0.9995887351597974 -5.270592300890357 22.05138447424548)"  >
<g style=""  paint-order="stroke"   >
		<g transform="matrix(1 0 0 1 0 0)" id="73455629-5b78-4884-ab4e-e3db58ad24f3-path-0"  >
<path style="stroke: rgb(255,255,255); stroke-width: 0; stroke-dasharray: none; stroke-linecap: butt; stroke-dashoffset: 0; stroke-linejoin: miter; stroke-miterlimit: 4; fill: rgb(255,255,255); fill-rule: nonzero; opacity: 1;"  paint-order="stroke"  transform=" translate(-9.513264865603391, 18.9)" d="M 1.62 -7.56 L 11.34 -7.56 C 11.66 -7.56 11.88 -7.29 11.88 -7.02 L 11.88 -0.54 C 11.88 -0.27 12.1 0 12.42 0 L 17.28 0 C 17.55 0 17.82 -0.22 17.82 -0.54 L 17.82 -37.26 C 17.82 -37.53 17.6 -37.8 17.28 -37.8 L 9.72 -37.8 C 9.4 -37.8 9.13 -37.53 9.02 -37.26 L 1.24 -8.1 C 1.13 -7.83 1.3 -7.56 1.62 -7.56 Z M 8.64 -14.04 L 11.77 -26.41 C 11.83 -26.73 11.88 -26.68 11.88 -26.41 L 11.88 -14.04 C 11.88 -13.72 11.61 -13.5 11.34 -13.5 L 9.07 -13.5 C 8.75 -13.5 8.59 -13.77 8.64 -14.04 Z" stroke-linecap="round" />
</g>
</g>
</g>
		<g transform="matrix(0.9923228565899755 -0.12367436391229507 0.12367436391229507 0.9923228565899755 22.618050006895473 20.724389662526118)"  >
<g style=""  paint-order="stroke"   >
		<g transform="matrix(1 0 0 1 0 0)" id="d20959c1-a0b7-42e2-a76e-71704ba4eeb4-path-0"  >
<path style="stroke: rgb(255,255,255); stroke-width: 0; stroke-dasharray: none; stroke-linecap: butt; stroke-dashoffset: 0; stroke-linejoin: miter; stroke-miterlimit: 4; fill: rgb(255,255,255); fill-rule: nonzero; opacity: 1;"  paint-order="stroke"  transform=" translate(-9.779507388247357, 18.9)" d="M 17.93 -37.8 L 1.73 -37.8 C 1.4 -37.8 1.19 -37.53 1.19 -37.26 L 1.19 -32.4 C 1.19 -32.08 1.46 -31.86 1.73 -31.86 L 10.69 -31.86 C 11.02 -31.86 11.18 -31.59 11.12 -31.32 L 4.54 -0.54 C 4.48 -0.27 4.64 0 4.97 0 L 10.91 0 L 18.36 -37.26 C 18.41 -37.53 18.25 -37.8 17.93 -37.8 Z" stroke-linecap="round" />
</g>
</g>
</g>
		<g transform="matrix(0.9660388913946909 -0.2583967111108742 0.2583967111108742 0.9660388913946909 47.252271691785865 15.921512377351199)"  >
<g style=""  paint-order="stroke"   >
		<g transform="matrix(1 0 0 1 0 0)" id="4eab1e63-8ffe-439f-b566-ecc793917692-path-0"  >
<path style="stroke: rgb(255,255,255); stroke-width: 0; stroke-dasharray: none; stroke-linecap: butt; stroke-dashoffset: 0; stroke-linejoin: miter; stroke-miterlimit: 4; fill: rgb(255,255,255); fill-rule: nonzero; opacity: 1;"  paint-order="stroke"  transform=" translate(-7.130000000000001, 18.9)" d="M 12.53 -21.87 L 1.73 -21.87 C 1.46 -21.87 1.19 -21.65 1.19 -21.33 L 1.19 -16.47 C 1.19 -16.2 1.4 -15.93 1.73 -15.93 L 12.53 -15.93 C 12.8 -15.93 13.07 -16.15 13.07 -16.47 L 13.07 -21.33 C 13.07 -21.6 12.85 -21.87 12.53 -21.87 Z" stroke-linecap="round" />
</g>
</g>
</g>
		<g transform="matrix(0.9312611384704185 -0.364352428254266 0.364352428254266 0.9312611384704185 66.63802508386291 9.561355341337569)"  >
<g style=""  paint-order="stroke"   >
		<g transform="matrix(1 0 0 1 0 0)" id="442534f7-a74c-4136-bc93-b87fb723a892-path-0"  >
<path style="stroke: rgb(255,255,255); stroke-width: 0; stroke-dasharray: none; stroke-linecap: butt; stroke-dashoffset: 0; stroke-linejoin: miter; stroke-miterlimit: 4; fill: rgb(255,255,255); fill-rule: nonzero; opacity: 1;"  paint-order="stroke"  transform=" translate(-5.779999999999999, 18.9)" d="M 1.19 -37.26 L 1.19 -32.4 C 1.19 -32.08 1.46 -31.86 1.73 -31.86 L 3.89 -31.86 C 4.16 -31.86 4.43 -31.64 4.43 -31.32 L 4.43 -0.54 C 4.43 -0.27 4.64 0 4.97 0 L 9.83 0 C 10.1 0 10.37 -0.22 10.37 -0.54 L 10.37 -37.26 C 10.37 -37.53 10.15 -37.8 9.83 -37.8 L 1.73 -37.8 C 1.4 -37.8 1.19 -37.53 1.19 -37.26 Z" stroke-linecap="round" />
</g>
</g>
</g>
		<g transform="matrix(0.8776713701515845 -0.4792629403743215 0.4792629403743215 0.8776713701515845 87.6663080788831 -0.24317060765874388)"  >
<g style=""  paint-order="stroke"   >
		<g transform="matrix(1 0 0 1 0 0)" id="4b59e948-bc48-4e84-9a51-d301bcfc54db-path-0"  >
<path style="stroke: rgb(255,255,255); stroke-width: 0; stroke-dasharray: none; stroke-linecap: butt; stroke-dashoffset: 0; stroke-linejoin: miter; stroke-miterlimit: 4; fill: rgb(255,255,255); fill-rule: nonzero; opacity: 1;"  paint-order="stroke"  transform=" translate(-9.513264865603391, 18.9)" d="M 1.62 -7.56 L 11.34 -7.56 C 11.66 -7.56 11.88 -7.29 11.88 -7.02 L 11.88 -0.54 C 11.88 -0.27 12.1 0 12.42 0 L 17.28 0 C 17.55 0 17.82 -0.22 17.82 -0.54 L 17.82 -37.26 C 17.82 -37.53 17.6 -37.8 17.28 -37.8 L 9.72 -37.8 C 9.4 -37.8 9.13 -37.53 9.02 -37.26 L 1.24 -8.1 C 1.13 -7.83 1.3 -7.56 1.62 -7.56 Z M 8.64 -14.04 L 11.77 -26.41 C 11.83 -26.73 11.88 -26.68 11.88 -26.41 L 11.88 -14.04 C 11.88 -13.72 11.61 -13.5 11.34 -13.5 L 9.07 -13.5 C 8.75 -13.5 8.59 -13.77 8.64 -14.04 Z" stroke-linecap="round" />
</g>
</g>
</g>
		<g transform="matrix(0.8099719031828566 -0.58646868292718 0.58646868292718 0.8099719031828566 107.28121436842133 -12.62476629342057)"  >
<g style=""  paint-order="stroke"   >
		<g transform="matrix(1 0 0 1 0 0)" id="1bcac3d4-ebb2-4b7a-a639-ea1dbfbe1c38-path-0"  >
<path style="stroke: rgb(255,255,255); stroke-width: 0; stroke-dasharray: none; stroke-linecap: butt; stroke-dashoffset: 0; stroke-linejoin: miter; stroke-miterlimit: 4; fill: rgb(255,255,255); fill-rule: nonzero; opacity: 1;"  paint-order="stroke"  transform=" translate(-5.779999999999999, 18.9)" d="M 1.19 -37.26 L 1.19 -32.4 C 1.19 -32.08 1.46 -31.86 1.73 -31.86 L 3.89 -31.86 C 4.16 -31.86 4.43 -31.64 4.43 -31.32 L 4.43 -0.54 C 4.43 -0.27 4.64 0 4.97 0 L 9.83 0 C 10.1 0 10.37 -0.22 10.37 -0.54 L 10.37 -37.26 C 10.37 -37.53 10.15 -37.8 9.83 -37.8 L 1.73 -37.8 C 1.4 -37.8 1.19 -37.53 1.19 -37.26 Z" stroke-linecap="round" />
</g>
</g>
</g>
		<g transform="matrix(0.7292510937647134 -0.6842461854062244 0.6842461854062244 0.7292510937647134 125.17537854816 -27.3924942641911)"  >
<g style=""  paint-order="stroke"   >
		<g transform="matrix(1 0 0 1 0 -3.55271e-15)" id="e81973d1-b9cf-4635-9f22-dbb4beb3085e-path-0"  >
<path style="stroke: rgb(255,255,255); stroke-width: 0; stroke-dasharray: none; stroke-linecap: butt; stroke-dashoffset: 0; stroke-linejoin: miter; stroke-miterlimit: 4; fill: rgb(255,255,255); fill-rule: nonzero; opacity: 1;"  paint-order="stroke"  transform=" translate(-9.513264865603391, 18.9)" d="M 1.62 -7.56 L 11.34 -7.56 C 11.66 -7.56 11.88 -7.29 11.88 -7.02 L 11.88 -0.54 C 11.88 -0.27 12.1 0 12.42 0 L 17.28 0 C 17.55 0 17.82 -0.22 17.82 -0.54 L 17.82 -37.26 C 17.82 -37.53 17.6 -37.8 17.28 -37.8 L 9.72 -37.8 C 9.4 -37.8 9.13 -37.53 9.02 -37.26 L 1.24 -8.1 C 1.13 -7.83 1.3 -7.56 1.62 -7.56 Z M 8.64 -14.04 L 11.77 -26.41 C 11.83 -26.73 11.88 -26.68 11.88 -26.41 L 11.88 -14.04 C 11.88 -13.72 11.61 -13.5 11.34 -13.5 L 9.07 -13.5 C 8.75 -13.5 8.59 -13.77 8.64 -14.04 Z" stroke-linecap="round" />
</g>
</g>
</g>
</g>
</g>
</svg>